<?xml version="1.0" encoding="utf-8" standalone="no"?>
<!DOCTYPE svg PUBLIC "-//W3C//DTD SVG 1.1//EN"
  "http://www.w3.org/Graphics/SVG/1.1/DTD/svg11.dtd">
<svg xmlns:xlink="http://www.w3.org/1999/xlink" width="432pt" height="288pt" viewBox="0 0 432 288" xmlns="http://www.w3.org/2000/svg" version="1.1">
 <metadata>
  <rdf:RDF xmlns:dc="http://purl.org/dc/elements/1.1/" xmlns:cc="http://creativecommons.org/ns#" xmlns:rdf="http://www.w3.org/1999/02/22-rdf-syntax-ns#">
   <cc:Work>
    <dc:type rdf:resource="http://purl.org/dc/dcmitype/StillImage"/>
    <dc:date>2024-05-14T16:04:57.993277</dc:date>
    <dc:format>image/svg+xml</dc:format>
    <dc:creator>
     <cc:Agent>
      <dc:title>Matplotlib v3.7.2, https://matplotlib.org/</dc:title>
     </cc:Agent>
    </dc:creator>
   </cc:Work>
  </rdf:RDF>
 </metadata>
 <defs>
  <style type="text/css">*{stroke-linejoin: round; stroke-linecap: butt}</style>
 </defs>
 <g id="figure_1">
  <g id="patch_1">
   <path d="M 0 288 
L 432 288 
L 432 0 
L 0 0 
L 0 288 
z
" style="fill: none"/>
  </g>
  <g id="axes_1">
   <g id="line2d_1">
    <path d="M 69.218182 78.968392 
L 112.325478 78.968392 
L 112.760905 36.674685 
L 373.581818 36.674685 
L 373.581818 36.674685 
" clip-path="url(#p339e36247f)" style="fill: none; stroke: #000000; stroke-width: 1.5; stroke-linecap: square"/>
   </g>
  </g>
  <g id="axes_2">
   <g id="patch_2">
    <path d="M 54 256.32 
L 388.8 256.32 
L 388.8 101.243077 
L 54 101.243077 
L 54 256.32 
z
" style="fill: none"/>
   </g>
   <g id="matplotlib.axis_1">
    <g id="xtick_1">
     <g id="line2d_2">
      <defs>
       <path id="m57b81a3908" d="M 0 0 
L 0 3.5 
" style="stroke: #000000; stroke-width: 0.8"/>
      </defs>
      <g>
       <use xlink:href="#m57b81a3908" x="112.760905" y="266.32" style="stroke: #000000; stroke-width: 0.8"/>
      </g>
     </g>
     <g id="text_1">
      <!-- 0 -->
      <g transform="translate(107.670905 285.4775) scale(0.16 -0.16)">
       <defs>
        <path id="DejaVuSans-30" d="M 2034 4250 
Q 1547 4250 1301 3770 
Q 1056 3291 1056 2328 
Q 1056 1369 1301 889 
Q 1547 409 2034 409 
Q 2525 409 2770 889 
Q 3016 1369 3016 2328 
Q 3016 3291 2770 3770 
Q 2525 4250 2034 4250 
z
M 2034 4750 
Q 2819 4750 3233 4129 
Q 3647 3509 3647 2328 
Q 3647 1150 3233 529 
Q 2819 -91 2034 -91 
Q 1250 -91 836 529 
Q 422 1150 422 2328 
Q 422 3509 836 4129 
Q 1250 4750 2034 4750 
z
" transform="scale(0.015625)"/>
       </defs>
       <use xlink:href="#DejaVuSans-30"/>
      </g>
     </g>
    </g>
    <g id="xtick_2">
     <g id="line2d_3">
      <g>
       <use xlink:href="#m57b81a3908" x="199.846352" y="266.32" style="stroke: #000000; stroke-width: 0.8"/>
      </g>
     </g>
     <g id="text_2">
      <!-- 2 -->
      <g transform="translate(194.756352 285.4775) scale(0.16 -0.16)">
       <defs>
        <path id="DejaVuSans-32" d="M 1228 531 
L 3431 531 
L 3431 0 
L 469 0 
L 469 531 
Q 828 903 1448 1529 
Q 2069 2156 2228 2338 
Q 2531 2678 2651 2914 
Q 2772 3150 2772 3378 
Q 2772 3750 2511 3984 
Q 2250 4219 1831 4219 
Q 1534 4219 1204 4116 
Q 875 4013 500 3803 
L 500 4441 
Q 881 4594 1212 4672 
Q 1544 4750 1819 4750 
Q 2544 4750 2975 4387 
Q 3406 4025 3406 3419 
Q 3406 3131 3298 2873 
Q 3191 2616 2906 2266 
Q 2828 2175 2409 1742 
Q 1991 1309 1228 531 
z
" transform="scale(0.015625)"/>
       </defs>
       <use xlink:href="#DejaVuSans-32"/>
      </g>
     </g>
    </g>
    <g id="xtick_3">
     <g id="line2d_4">
      <g>
       <use xlink:href="#m57b81a3908" x="286.931799" y="266.32" style="stroke: #000000; stroke-width: 0.8"/>
      </g>
     </g>
     <g id="text_3">
      <!-- 4 -->
      <g transform="translate(281.841799 285.4775) scale(0.16 -0.16)">
       <defs>
        <path id="DejaVuSans-34" d="M 2419 4116 
L 825 1625 
L 2419 1625 
L 2419 4116 
z
M 2253 4666 
L 3047 4666 
L 3047 1625 
L 3713 1625 
L 3713 1100 
L 3047 1100 
L 3047 0 
L 2419 0 
L 2419 1100 
L 313 1100 
L 313 1709 
L 2253 4666 
z
" transform="scale(0.015625)"/>
       </defs>
       <use xlink:href="#DejaVuSans-34"/>
      </g>
     </g>
    </g>
    <g id="xtick_4">
     <g id="line2d_5">
      <g>
       <use xlink:href="#m57b81a3908" x="374.017245" y="266.32" style="stroke: #000000; stroke-width: 0.8"/>
      </g>
     </g>
     <g id="text_4">
      <!-- 6 -->
      <g transform="translate(368.927245 285.4775) scale(0.16 -0.16)">
       <defs>
        <path id="DejaVuSans-36" d="M 2113 2584 
Q 1688 2584 1439 2293 
Q 1191 2003 1191 1497 
Q 1191 994 1439 701 
Q 1688 409 2113 409 
Q 2538 409 2786 701 
Q 3034 994 3034 1497 
Q 3034 2003 2786 2293 
Q 2538 2584 2113 2584 
z
M 3366 4563 
L 3366 3988 
Q 3128 4100 2886 4159 
Q 2644 4219 2406 4219 
Q 1781 4219 1451 3797 
Q 1122 3375 1075 2522 
Q 1259 2794 1537 2939 
Q 1816 3084 2150 3084 
Q 2853 3084 3261 2657 
Q 3669 2231 3669 1497 
Q 3669 778 3244 343 
Q 2819 -91 2113 -91 
Q 1303 -91 875 529 
Q 447 1150 447 2328 
Q 447 3434 972 4092 
Q 1497 4750 2381 4750 
Q 2619 4750 2861 4703 
Q 3103 4656 3366 4563 
z
" transform="scale(0.015625)"/>
       </defs>
       <use xlink:href="#DejaVuSans-36"/>
      </g>
     </g>
    </g>
    <g id="text_5">
     <!-- t -->
     <g transform="translate(218.26375 304.9625) scale(0.16 -0.16)">
      <defs>
       <path id="DejaVuSans-74" d="M 1172 4494 
L 1172 3500 
L 2356 3500 
L 2356 3053 
L 1172 3053 
L 1172 1153 
Q 1172 725 1289 603 
Q 1406 481 1766 481 
L 2356 481 
L 2356 0 
L 1766 0 
Q 1100 0 847 248 
Q 594 497 594 1153 
L 594 3053 
L 172 3053 
L 172 3500 
L 594 3500 
L 594 4494 
L 1172 4494 
z
" transform="scale(0.015625)"/>
      </defs>
      <use xlink:href="#DejaVuSans-74"/>
     </g>
    </g>
   </g>
   <g id="matplotlib.axis_2">
    <g id="ytick_1">
     <g id="line2d_6">
      <defs>
       <path id="mb3500953ea" d="M 0 0 
L -3.5 0 
" style="stroke: #000000; stroke-width: 0.8"/>
      </defs>
      <g>
       <use xlink:href="#mb3500953ea" x="44" y="249.271049" style="stroke: #000000; stroke-width: 0.8"/>
      </g>
     </g>
     <g id="text_6">
      <!-- 0.0 -->
      <g transform="translate(11.555 255.349799) scale(0.16 -0.16)">
       <defs>
        <path id="DejaVuSans-2e" d="M 684 794 
L 1344 794 
L 1344 0 
L 684 0 
L 684 794 
z
" transform="scale(0.015625)"/>
       </defs>
       <use xlink:href="#DejaVuSans-30"/>
       <use xlink:href="#DejaVuSans-2e" x="63.623047"/>
       <use xlink:href="#DejaVuSans-30" x="95.410156"/>
      </g>
     </g>
    </g>
    <g id="ytick_2">
     <g id="line2d_7">
      <g>
       <use xlink:href="#mb3500953ea" x="44" y="206.721667" style="stroke: #000000; stroke-width: 0.8"/>
      </g>
     </g>
     <g id="text_7">
      <!-- 0.2 -->
      <g transform="translate(11.555 212.800417) scale(0.16 -0.16)">
       <use xlink:href="#DejaVuSans-30"/>
       <use xlink:href="#DejaVuSans-2e" x="63.623047"/>
       <use xlink:href="#DejaVuSans-32" x="95.410156"/>
      </g>
     </g>
    </g>
    <g id="ytick_3">
     <g id="line2d_8">
      <g>
       <use xlink:href="#mb3500953ea" x="44" y="164.172284" style="stroke: #000000; stroke-width: 0.8"/>
      </g>
     </g>
     <g id="text_8">
      <!-- 0.4 -->
      <g transform="translate(11.555 170.251034) scale(0.16 -0.16)">
       <use xlink:href="#DejaVuSans-30"/>
       <use xlink:href="#DejaVuSans-2e" x="63.623047"/>
       <use xlink:href="#DejaVuSans-34" x="95.410156"/>
      </g>
     </g>
    </g>
    <g id="ytick_4">
     <g id="line2d_9">
      <g>
       <use xlink:href="#mb3500953ea" x="44" y="121.622902" style="stroke: #000000; stroke-width: 0.8"/>
      </g>
     </g>
     <g id="text_9">
      <!-- 0.6 -->
      <g transform="translate(11.555 127.701652) scale(0.16 -0.16)">
       <use xlink:href="#DejaVuSans-30"/>
       <use xlink:href="#DejaVuSans-2e" x="63.623047"/>
       <use xlink:href="#DejaVuSans-36" x="95.410156"/>
      </g>
     </g>
    </g>
    <g id="text_10">
     <!-- $I_{\mathbf{x},h}$ -->
     <g transform="translate(3.555 191.421538) rotate(-90) scale(0.16 -0.16)">
      <defs>
       <path id="DejaVuSans-Oblique-49" d="M 1081 4666 
L 1716 4666 
L 806 0 
L 172 0 
L 1081 4666 
z
" transform="scale(0.015625)"/>
       <path id="DejaVuSans-Bold-78" d="M 1422 1791 
L 159 3500 
L 1344 3500 
L 2059 2463 
L 2784 3500 
L 3969 3500 
L 2706 1797 
L 4031 0 
L 2847 0 
L 2059 1106 
L 1281 0 
L 97 0 
L 1422 1791 
z
" transform="scale(0.015625)"/>
       <path id="DejaVuSans-2c" d="M 750 794 
L 1409 794 
L 1409 256 
L 897 -744 
L 494 -744 
L 750 256 
L 750 794 
z
" transform="scale(0.015625)"/>
       <path id="DejaVuSans-Oblique-68" d="M 3566 2113 
L 3156 0 
L 2578 0 
L 2988 2091 
Q 3016 2238 3031 2350 
Q 3047 2463 3047 2528 
Q 3047 2791 2881 2937 
Q 2716 3084 2419 3084 
Q 1956 3084 1617 2771 
Q 1278 2459 1178 1941 
L 800 0 
L 225 0 
L 1172 4863 
L 1747 4863 
L 1375 2950 
Q 1594 3244 1934 3414 
Q 2275 3584 2650 3584 
Q 3113 3584 3367 3334 
Q 3622 3084 3622 2631 
Q 3622 2519 3608 2391 
Q 3594 2263 3566 2113 
z
" transform="scale(0.015625)"/>
      </defs>
      <use xlink:href="#DejaVuSans-Oblique-49" transform="translate(0 0.09375)"/>
      <use xlink:href="#DejaVuSans-Bold-78" transform="translate(29.492188 -16.3125) scale(0.7)"/>
      <use xlink:href="#DejaVuSans-2c" transform="translate(74.643555 -16.3125) scale(0.7)"/>
      <use xlink:href="#DejaVuSans-Oblique-68" transform="translate(110.532227 -16.3125) scale(0.7)"/>
     </g>
    </g>
   </g>
   <g id="line2d_10">
    <path d="M 69.218182 249.271049 
L 113.63176 249.1958 
L 114.938041 248.814039 
L 116.244323 248.135626 
L 117.550605 247.190109 
L 118.856886 246.006763 
L 120.598595 244.108053 
L 122.775732 241.308058 
L 124.952868 238.139516 
L 128.000858 233.270876 
L 132.355131 225.830861 
L 141.93453 209.33132 
L 146.288802 202.289986 
L 150.643075 195.686099 
L 154.56192 190.146533 
L 158.480765 184.994643 
L 162.39961 180.222364 
L 166.318455 175.814206 
L 170.2373 171.75053 
L 174.156145 168.009693 
L 178.07499 164.569427 
L 181.993835 161.407706 
L 186.348108 158.19555 
L 190.70238 155.273462 
L 195.056652 152.615728 
L 199.846352 149.969268 
L 204.636052 147.585101 
L 209.425751 145.437074 
L 214.650878 143.335407 
L 220.311432 141.312272 
L 225.971986 139.522835 
L 232.067967 137.82584 
L 238.599376 136.239364 
L 245.566211 134.776264 
L 252.968474 133.444455 
L 261.241592 132.186571 
L 270.385564 131.033185 
L 280.40039 130.004398 
L 291.286071 129.110393 
L 303.913461 128.303794 
L 318.28256 127.615997 
L 335.264222 127.034369 
L 355.729302 126.564307 
L 373.581818 126.293228 
L 373.581818 126.293228 
" clip-path="url(#p93be717516)" style="fill: none; stroke: #8bdab2; stroke-width: 2; stroke-linecap: square"/>
   </g>
   <g id="line2d_11">
    <path d="M 69.218182 249.271049 
L 113.63176 249.216171 
L 114.938041 248.935377 
L 116.244323 248.430817 
L 117.550605 247.719088 
L 119.292314 246.476825 
L 121.034023 244.935527 
L 123.211159 242.646755 
L 125.388295 240.021755 
L 128.000858 236.519745 
L 131.484276 231.415956 
L 136.273976 223.917519 
L 150.207647 201.825587 
L 155.432774 194.104426 
L 160.222474 187.445508 
L 164.576746 181.763684 
L 168.931018 176.441106 
L 173.285291 171.473035 
L 177.639563 166.848632 
L 181.993835 162.553292 
L 186.348108 158.570245 
L 190.70238 154.881664 
L 195.056652 151.4694 
L 199.846352 148.013617 
L 204.636052 144.847228 
L 209.425751 141.948057 
L 214.215451 139.295145 
L 219.440577 136.658846 
L 224.665704 134.268501 
L 230.326258 131.931148 
L 235.986812 129.831247 
L 242.082794 127.808766 
L 248.614202 125.887765 
L 255.581038 124.087322 
L 262.547874 122.513003 
L 270.385564 120.977952 
L 278.658681 119.592349 
L 287.367226 118.356601 
L 296.946625 117.22037 
L 307.396879 116.202866 
L 319.153414 115.284134 
L 332.216231 114.48692 
L 347.456184 113.786316 
L 365.308701 113.198256 
L 373.581818 112.990271 
L 373.581818 112.990271 
" clip-path="url(#p93be717516)" style="fill: none; stroke: #40b7ad; stroke-width: 2; stroke-linecap: square"/>
   </g>
   <g id="line2d_12">
    <path d="M 69.218182 249.271049 
L 114.067187 249.17813 
L 115.808896 248.784698 
L 117.550605 248.115788 
L 119.292314 247.203348 
L 121.46945 245.763324 
L 123.646586 244.035595 
L 126.259149 241.641266 
L 129.30714 238.482626 
L 132.790558 234.491226 
L 136.709403 229.635719 
L 141.93453 222.757511 
L 150.207647 211.420213 
L 160.222474 197.768361 
L 166.753882 189.250331 
L 172.414436 182.237095 
L 177.639563 176.114197 
L 182.86469 170.351302 
L 187.654389 165.393369 
L 192.444089 160.746584 
L 197.233789 156.406275 
L 202.023488 152.36405 
L 206.813188 148.608878 
L 211.602887 145.127949 
L 216.392587 141.907338 
L 221.617714 138.673767 
L 226.84284 135.713593 
L 232.067967 133.007849 
L 237.293094 130.538027 
L 242.953648 128.107965 
L 248.614202 125.912312 
L 254.710183 123.786647 
L 261.241592 121.757887 
L 267.773 119.960277 
L 274.739836 118.27007 
L 282.142099 116.701857 
L 289.979789 115.265603 
L 298.688334 113.904073 
L 307.832306 112.701522 
L 317.847132 111.609193 
L 329.16824 110.608322 
L 341.79563 109.728291 
L 355.729302 108.984184 
L 371.840109 108.349006 
L 373.581818 108.292028 
L 373.581818 108.292028 
" clip-path="url(#p93be717516)" style="fill: none; stroke: #348fa7; stroke-width: 2; stroke-linecap: square"/>
   </g>
   <g id="line2d_13">
    <path d="M 69.218182 249.271049 
L 114.067187 249.160868 
L 115.373469 248.852839 
L 117.115178 248.186508 
L 118.856886 247.28323 
L 121.034023 245.895016 
L 123.646586 243.94438 
L 126.694577 241.387879 
L 130.613422 237.794508 
L 135.403121 233.07871 
L 141.063675 227.170506 
L 147.595084 220.010074 
L 156.303629 210.086946 
L 172.414436 191.649487 
L 179.381272 184.062928 
L 185.477253 177.76168 
L 191.137807 172.240744 
L 196.362934 167.449702 
L 201.588061 162.962089 
L 206.813188 158.780162 
L 212.038314 154.900172 
L 217.263441 151.313878 
L 222.488568 148.009818 
L 227.713695 144.97435 
L 232.938822 142.19248 
L 238.163948 139.648501 
L 243.824503 137.1425 
L 249.485057 134.876927 
L 255.581038 132.683608 
L 261.677019 130.72324 
L 268.208428 128.856454 
L 275.175263 127.103977 
L 282.577526 125.481475 
L 290.415217 123.999527 
L 298.688334 122.663824 
L 307.832306 121.421411 
L 317.847132 120.298054 
L 328.732813 119.309539 
L 340.924776 118.434627 
L 354.42302 117.69118 
L 370.0984 117.053472 
L 373.581818 116.938073 
L 373.581818 116.938073 
" clip-path="url(#p93be717516)" style="fill: none; stroke: #37659e; stroke-width: 2; stroke-linecap: square"/>
   </g>
   <g id="line2d_14">
    <path d="M 69.218182 249.271049 
L 113.63176 249.197098 
L 114.938041 248.841216 
L 116.244323 248.247522 
L 117.986032 247.178224 
L 120.163168 245.535838 
L 123.211159 242.916491 
L 157.174483 212.279501 
L 169.366446 200.693058 
L 179.381272 191.309253 
L 185.91268 185.476907 
L 192.008662 180.331306 
L 197.669216 175.852401 
L 202.894343 171.992649 
L 208.119469 168.40375 
L 213.344596 165.085362 
L 218.569723 162.031706 
L 223.79485 159.233085 
L 229.019977 156.677125 
L 234.680531 154.165682 
L 240.341085 151.903479 
L 246.001639 149.871067 
L 252.09762 147.917234 
L 258.629028 146.068459 
L 265.160437 144.446379 
L 272.127273 142.937836 
L 279.529536 141.555364 
L 287.802653 140.242918 
L 296.511198 139.087751 
L 306.090597 138.041738 
L 316.976278 137.087508 
L 329.16824 136.255143 
L 343.101912 135.539891 
L 359.212719 134.945503 
L 373.581818 134.568104 
L 373.581818 134.568104 
" clip-path="url(#p93be717516)" style="fill: none; stroke: #413d7b; stroke-width: 2; stroke-linecap: square"/>
   </g>
   <g id="patch_3">
    <path d="M 44 256.32 
L 44 101.243077 
" style="fill: none; stroke: #000000; stroke-width: 0.8; stroke-linejoin: miter; stroke-linecap: square"/>
   </g>
   <g id="patch_4">
    <path d="M 54 266.32 
L 388.8 266.32 
" style="fill: none; stroke: #000000; stroke-width: 0.8; stroke-linejoin: miter; stroke-linecap: square"/>
   </g>
   <g id="legend_1">
    <g id="patch_5">
     <path d="M 400 200.452692 
L 503.1375 200.452692 
Q 506.3375 200.452692 506.3375 197.252692 
L 506.3375 81.427692 
Q 506.3375 78.227692 503.1375 78.227692 
L 400 78.227692 
Q 396.8 78.227692 396.8 81.427692 
L 396.8 197.252692 
Q 396.8 200.452692 400 200.452692 
z
" style="fill: #ffffff; opacity: 0.8; stroke: #cccccc; stroke-linejoin: miter"/>
    </g>
    <g id="line2d_15">
     <path d="M 403.2 91.185192 
L 419.2 91.185192 
L 433 91.185192 
" style="fill: none; stroke: #8bdab2; stroke-width: 2; stroke-linecap: square"/>
    </g>
    <g id="text_11">
     <!-- w=0.1 -->
     <g transform="translate(448 96.785192) scale(0.16 -0.16)">
      <defs>
       <path id="DejaVuSans-77" d="M 269 3500 
L 844 3500 
L 1563 769 
L 2278 3500 
L 2956 3500 
L 3675 769 
L 4391 3500 
L 4966 3500 
L 4050 0 
L 3372 0 
L 2619 2869 
L 1863 0 
L 1184 0 
L 269 3500 
z
" transform="scale(0.015625)"/>
       <path id="DejaVuSans-3d" d="M 678 2906 
L 4684 2906 
L 4684 2381 
L 678 2381 
L 678 2906 
z
M 678 1631 
L 4684 1631 
L 4684 1100 
L 678 1100 
L 678 1631 
z
" transform="scale(0.015625)"/>
       <path id="DejaVuSans-31" d="M 794 531 
L 1825 531 
L 1825 4091 
L 703 3866 
L 703 4441 
L 1819 4666 
L 2450 4666 
L 2450 531 
L 3481 531 
L 3481 0 
L 794 0 
L 794 531 
z
" transform="scale(0.015625)"/>
      </defs>
      <use xlink:href="#DejaVuSans-77"/>
      <use xlink:href="#DejaVuSans-3d" x="81.787109"/>
      <use xlink:href="#DejaVuSans-30" x="165.576172"/>
      <use xlink:href="#DejaVuSans-2e" x="229.199219"/>
      <use xlink:href="#DejaVuSans-31" x="260.986328"/>
     </g>
    </g>
    <g id="line2d_16">
     <path d="M 403.2 114.670192 
L 419.2 114.670192 
L 433 114.670192 
" style="fill: none; stroke: #40b7ad; stroke-width: 2; stroke-linecap: square"/>
    </g>
    <g id="text_12">
     <!-- w=0.4 -->
     <g transform="translate(448 120.270192) scale(0.16 -0.16)">
      <use xlink:href="#DejaVuSans-77"/>
      <use xlink:href="#DejaVuSans-3d" x="81.787109"/>
      <use xlink:href="#DejaVuSans-30" x="165.576172"/>
      <use xlink:href="#DejaVuSans-2e" x="229.199219"/>
      <use xlink:href="#DejaVuSans-34" x="260.986328"/>
     </g>
    </g>
    <g id="line2d_17">
     <path d="M 403.2 138.155192 
L 419.2 138.155192 
L 433 138.155192 
" style="fill: none; stroke: #348fa7; stroke-width: 2; stroke-linecap: square"/>
    </g>
    <g id="text_13">
     <!-- w=1 -->
     <g transform="translate(448 143.755192) scale(0.16 -0.16)">
      <use xlink:href="#DejaVuSans-77"/>
      <use xlink:href="#DejaVuSans-3d" x="81.787109"/>
      <use xlink:href="#DejaVuSans-31" x="165.576172"/>
     </g>
    </g>
    <g id="line2d_18">
     <path d="M 403.2 161.640192 
L 419.2 161.640192 
L 433 161.640192 
" style="fill: none; stroke: #37659e; stroke-width: 2; stroke-linecap: square"/>
    </g>
    <g id="text_14">
     <!-- w=2 -->
     <g transform="translate(448 167.240192) scale(0.16 -0.16)">
      <use xlink:href="#DejaVuSans-77"/>
      <use xlink:href="#DejaVuSans-3d" x="81.787109"/>
      <use xlink:href="#DejaVuSans-32" x="165.576172"/>
     </g>
    </g>
    <g id="line2d_19">
     <path d="M 403.2 185.125192 
L 419.2 185.125192 
L 433 185.125192 
" style="fill: none; stroke: #413d7b; stroke-width: 2; stroke-linecap: square"/>
    </g>
    <g id="text_15">
     <!-- w=5 -->
     <g transform="translate(448 190.725192) scale(0.16 -0.16)">
      <defs>
       <path id="DejaVuSans-35" d="M 691 4666 
L 3169 4666 
L 3169 4134 
L 1269 4134 
L 1269 2991 
Q 1406 3038 1543 3061 
Q 1681 3084 1819 3084 
Q 2600 3084 3056 2656 
Q 3513 2228 3513 1497 
Q 3513 744 3044 326 
Q 2575 -91 1722 -91 
Q 1428 -91 1123 -41 
Q 819 9 494 109 
L 494 744 
Q 775 591 1075 516 
Q 1375 441 1709 441 
Q 2250 441 2565 725 
Q 2881 1009 2881 1497 
Q 2881 1984 2565 2268 
Q 2250 2553 1709 2553 
Q 1456 2553 1204 2497 
Q 953 2441 691 2322 
L 691 4666 
z
" transform="scale(0.015625)"/>
      </defs>
      <use xlink:href="#DejaVuSans-77"/>
      <use xlink:href="#DejaVuSans-3d" x="81.787109"/>
      <use xlink:href="#DejaVuSans-35" x="165.576172"/>
     </g>
    </g>
   </g>
  </g>
  <g id="axes_3">
   <g id="patch_6">
    <path d="M 280.8 230.4 
L 367.2 230.4 
L 367.2 172.8 
L 280.8 172.8 
L 280.8 230.4 
z
" style="fill: none"/>
   </g>
   <g id="matplotlib.axis_3">
    <g id="xtick_5">
     <g id="line2d_20">
      <g>
       <use xlink:href="#m57b81a3908" x="284.727273" y="240.4" style="stroke: #000000; stroke-width: 0.8"/>
      </g>
     </g>
     <g id="text_16">
      <!-- 0.0 -->
      <g transform="translate(272.004773 259.5575) scale(0.16 -0.16)">
       <use xlink:href="#DejaVuSans-30"/>
       <use xlink:href="#DejaVuSans-2e" x="63.623047"/>
       <use xlink:href="#DejaVuSans-30" x="95.410156"/>
      </g>
     </g>
    </g>
    <g id="xtick_6">
     <g id="line2d_21">
      <g>
       <use xlink:href="#m57b81a3908" x="326.066986" y="240.4" style="stroke: #000000; stroke-width: 0.8"/>
      </g>
     </g>
     <g id="text_17">
      <!-- 0.1 -->
      <g transform="translate(313.344486 259.5575) scale(0.16 -0.16)">
       <use xlink:href="#DejaVuSans-30"/>
       <use xlink:href="#DejaVuSans-2e" x="63.623047"/>
       <use xlink:href="#DejaVuSans-31" x="95.410156"/>
      </g>
     </g>
    </g>
   </g>
   <g id="matplotlib.axis_4">
    <g id="ytick_5">
     <g id="line2d_22">
      <g>
       <use xlink:href="#mb3500953ea" x="270.8" y="227.781818" style="stroke: #000000; stroke-width: 0.8"/>
      </g>
     </g>
     <g id="text_18">
      <!-- 0.000 -->
      <g transform="translate(217.995 233.860568) scale(0.16 -0.16)">
       <use xlink:href="#DejaVuSans-30"/>
       <use xlink:href="#DejaVuSans-2e" x="63.623047"/>
       <use xlink:href="#DejaVuSans-30" x="95.410156"/>
       <use xlink:href="#DejaVuSans-30" x="159.033203"/>
       <use xlink:href="#DejaVuSans-30" x="222.65625"/>
      </g>
     </g>
    </g>
    <g id="ytick_6">
     <g id="line2d_23">
      <g>
       <use xlink:href="#mb3500953ea" x="270.8" y="178.820359" style="stroke: #000000; stroke-width: 0.8"/>
      </g>
     </g>
     <g id="text_19">
      <!-- 0.025 -->
      <g transform="translate(217.995 184.899109) scale(0.16 -0.16)">
       <use xlink:href="#DejaVuSans-30"/>
       <use xlink:href="#DejaVuSans-2e" x="63.623047"/>
       <use xlink:href="#DejaVuSans-30" x="95.410156"/>
       <use xlink:href="#DejaVuSans-32" x="159.033203"/>
       <use xlink:href="#DejaVuSans-35" x="222.65625"/>
      </g>
     </g>
    </g>
   </g>
   <g id="line2d_24">
    <path d="M 284.727273 227.781818 
L 288.861244 227.607032 
L 292.995215 227.089111 
L 297.129187 226.237822 
L 301.263158 225.063051 
L 305.397129 223.574779 
L 309.5311 221.783053 
L 313.665072 219.697957 
L 317.799043 217.32959 
L 321.933014 214.68804 
L 326.066986 211.783364 
L 330.200957 208.625561 
L 334.334928 205.224559 
L 338.4689 201.59019 
L 342.602871 197.732178 
L 346.736842 193.660119 
L 350.870813 189.383471 
L 355.004785 184.911535 
L 359.138756 180.253452 
L 363.272727 175.418182 
" clip-path="url(#pce53010e0a)" style="fill: none; stroke: #8bdab2; stroke-width: 2; stroke-linecap: square"/>
   </g>
   <g id="line2d_25">
    <path d="M 284.727273 227.781818 
L 288.861244 227.65464 
L 292.995215 227.276639 
L 297.129187 226.65318 
L 301.263158 225.789714 
L 305.397129 224.69176 
L 309.5311 223.364897 
L 313.665072 221.814754 
L 317.799043 220.046999 
L 321.933014 218.067329 
L 326.066986 215.88146 
L 330.200957 213.495117 
L 334.334928 210.914028 
L 338.4689 208.143911 
L 342.602871 205.190467 
L 346.736842 202.059375 
L 350.870813 198.756282 
L 355.004785 195.286794 
L 359.138756 191.656474 
L 363.272727 187.870833 
" clip-path="url(#pce53010e0a)" style="fill: none; stroke: #40b7ad; stroke-width: 2; stroke-linecap: square"/>
   </g>
   <g id="line2d_26">
    <path d="M 284.727273 227.781818 
L 288.861244 227.684868 
L 292.995215 227.397861 
L 297.129187 226.92645 
L 301.263158 226.276139 
L 305.397129 225.452288 
L 309.5311 224.460111 
L 313.665072 223.304681 
L 317.799043 221.990926 
L 321.933014 220.523642 
L 326.066986 218.907483 
L 330.200957 217.146975 
L 334.334928 215.246511 
L 338.4689 213.210358 
L 342.602871 211.042658 
L 346.736842 208.747434 
L 350.870813 206.328591 
L 355.004785 203.789918 
L 359.138756 201.135094 
L 363.272727 198.367693 
" clip-path="url(#pce53010e0a)" style="fill: none; stroke: #348fa7; stroke-width: 2; stroke-linecap: square"/>
   </g>
   <g id="line2d_27">
    <path d="M 284.727273 227.781818 
L 288.861244 227.665074 
L 292.995215 227.323019 
L 297.129187 226.767543 
L 301.263158 226.010031 
L 305.397129 225.061369 
L 309.5311 223.931953 
L 313.665072 222.631697 
L 317.799043 221.17004 
L 321.933014 219.555962 
L 326.066986 217.797992 
L 330.200957 215.904223 
L 334.334928 213.882327 
L 338.4689 211.739562 
L 342.602871 209.482797 
L 346.736842 207.118517 
L 350.870813 204.652842 
L 355.004785 202.091543 
L 359.138756 199.440052 
L 363.272727 196.703481 
" clip-path="url(#pce53010e0a)" style="fill: none; stroke: #37659e; stroke-width: 2; stroke-linecap: square"/>
   </g>
   <g id="line2d_28">
    <path d="M 284.727273 227.781818 
L 288.861244 227.607464 
L 292.995215 227.101058 
L 297.129187 226.286721 
L 301.263158 225.187419 
L 305.397129 223.824958 
L 309.5311 222.220004 
L 313.665072 220.392093 
L 317.799043 218.359658 
L 321.933014 216.140048 
L 326.066986 213.749566 
L 330.200957 211.203499 
L 334.334928 208.516152 
L 338.4689 205.700887 
L 342.602871 202.770161 
L 346.736842 199.735565 
L 350.870813 196.607864 
L 355.004785 193.397037 
L 359.138756 190.112313 
L 363.272727 186.762214 
" clip-path="url(#pce53010e0a)" style="fill: none; stroke: #413d7b; stroke-width: 2; stroke-linecap: square"/>
   </g>
   <g id="patch_7">
    <path d="M 270.8 230.4 
L 270.8 172.8 
" style="fill: none; stroke: #000000; stroke-width: 0.8; stroke-linejoin: miter; stroke-linecap: square"/>
   </g>
   <g id="patch_8">
    <path d="M 280.8 240.4 
L 367.2 240.4 
" style="fill: none; stroke: #000000; stroke-width: 0.8; stroke-linejoin: miter; stroke-linecap: square"/>
   </g>
  </g>
 </g>
 <defs>
  <clipPath id="p339e36247f">
   <rect x="54" y="34.56" width="334.8" height="46.523077"/>
  </clipPath>
  <clipPath id="p93be717516">
   <rect x="54" y="101.243077" width="334.8" height="155.076923"/>
  </clipPath>
  <clipPath id="pce53010e0a">
   <rect x="280.8" y="172.8" width="86.4" height="57.6"/>
  </clipPath>
 </defs>
</svg>
