<?xml version="1.0" encoding="utf-8" standalone="no"?>
<!DOCTYPE svg PUBLIC "-//W3C//DTD SVG 1.1//EN"
  "http://www.w3.org/Graphics/SVG/1.1/DTD/svg11.dtd">
<svg xmlns:xlink="http://www.w3.org/1999/xlink" width="432pt" height="216pt" viewBox="0 0 432 216" xmlns="http://www.w3.org/2000/svg" version="1.1">
 <metadata>
  <rdf:RDF xmlns:dc="http://purl.org/dc/elements/1.1/" xmlns:cc="http://creativecommons.org/ns#" xmlns:rdf="http://www.w3.org/1999/02/22-rdf-syntax-ns#">
   <cc:Work>
    <dc:type rdf:resource="http://purl.org/dc/dcmitype/StillImage"/>
    <dc:date>2024-05-09T15:50:28.989679</dc:date>
    <dc:format>image/svg+xml</dc:format>
    <dc:creator>
     <cc:Agent>
      <dc:title>Matplotlib v3.7.0, https://matplotlib.org/</dc:title>
     </cc:Agent>
    </dc:creator>
   </cc:Work>
  </rdf:RDF>
 </metadata>
 <defs>
  <style type="text/css">*{stroke-linejoin: round; stroke-linecap: butt}</style>
 </defs>
 <g id="figure_1">
  <g id="patch_1">
   <path d="M 0 216 
L 432 216 
L 432 0 
L 0 0 
L 0 216 
z
" style="fill: none"/>
  </g>
  <g id="axes_1">
   <g id="patch_2">
    <path d="M 54 192.24 
L 388.8 192.24 
L 388.8 25.92 
L 54 25.92 
L 54 192.24 
z
" style="fill: none"/>
   </g>
   <g id="matplotlib.axis_1">
    <g id="xtick_1">
     <g id="line2d_1">
      <defs>
       <path id="m617b5350ee" d="M 0 0 
L 0 3.5 
" style="stroke: #000000; stroke-width: 0.8"/>
      </defs>
      <g>
       <use xlink:href="#m617b5350ee" x="69.218182" y="202.24" style="stroke: #000000; stroke-width: 0.8"/>
      </g>
     </g>
     <g id="text_1">
      <!-- 0 -->
      <g transform="translate(64.770682 221.335) scale(0.16 -0.16)">
       <defs>
        <path id="Avenir-Book-30" d="M 1779 4186 
Q 1408 4186 1193 3987 
Q 979 3789 870 3494 
Q 762 3200 733 2867 
Q 704 2534 704 2266 
Q 704 1997 733 1664 
Q 762 1331 870 1036 
Q 979 742 1193 544 
Q 1408 346 1779 346 
Q 2150 346 2364 544 
Q 2579 742 2688 1036 
Q 2797 1331 2825 1664 
Q 2854 1997 2854 2266 
Q 2854 2534 2825 2867 
Q 2797 3200 2688 3494 
Q 2579 3789 2364 3987 
Q 2150 4186 1779 4186 
z
M 1779 4608 
Q 2266 4608 2566 4384 
Q 2867 4160 3033 3814 
Q 3200 3469 3257 3056 
Q 3315 2643 3315 2266 
Q 3315 1888 3257 1475 
Q 3200 1062 3033 716 
Q 2867 371 2566 147 
Q 2266 -77 1779 -77 
Q 1293 -77 992 147 
Q 691 371 524 716 
Q 358 1062 300 1475 
Q 243 1888 243 2266 
Q 243 2643 300 3056 
Q 358 3469 524 3814 
Q 691 4160 992 4384 
Q 1293 4608 1779 4608 
z
" transform="scale(0.015625)"/>
       </defs>
       <use xlink:href="#Avenir-Book-30"/>
      </g>
     </g>
    </g>
    <g id="xtick_2">
     <g id="line2d_2">
      <g>
       <use xlink:href="#m617b5350ee" x="170.8421" y="202.24" style="stroke: #000000; stroke-width: 0.8"/>
      </g>
     </g>
     <g id="text_2">
      <!-- 2 -->
      <g transform="translate(166.3946 221.335) scale(0.16 -0.16)">
       <defs>
        <path id="Avenir-Book-32" d="M 3187 0 
L 307 0 
L 307 531 
L 2112 2368 
Q 2214 2470 2316 2585 
Q 2419 2701 2502 2829 
Q 2586 2957 2637 3097 
Q 2688 3238 2688 3392 
Q 2688 3578 2621 3725 
Q 2554 3872 2432 3974 
Q 2310 4077 2150 4131 
Q 1990 4186 1811 4186 
Q 1466 4186 1222 3994 
Q 979 3802 909 3475 
L 422 3526 
Q 518 4032 886 4320 
Q 1254 4608 1779 4608 
Q 2054 4608 2300 4534 
Q 2547 4461 2736 4313 
Q 2925 4166 3037 3945 
Q 3149 3725 3149 3430 
Q 3149 3168 3069 2950 
Q 2989 2733 2861 2541 
Q 2733 2349 2569 2176 
Q 2406 2003 2234 1837 
L 806 422 
L 3187 422 
L 3187 0 
z
" transform="scale(0.015625)"/>
       </defs>
       <use xlink:href="#Avenir-Book-32"/>
      </g>
     </g>
    </g>
    <g id="xtick_3">
     <g id="line2d_3">
      <g>
       <use xlink:href="#m617b5350ee" x="272.466019" y="202.24" style="stroke: #000000; stroke-width: 0.8"/>
      </g>
     </g>
     <g id="text_3">
      <!-- 4 -->
      <g transform="translate(268.018519 221.335) scale(0.16 -0.16)">
       <defs>
        <path id="Avenir-Book-34" d="M 2202 4070 
L 2189 4070 
L 627 1498 
L 2202 1498 
L 2202 4070 
z
M 2662 1498 
L 3315 1498 
L 3315 1075 
L 2662 1075 
L 2662 0 
L 2202 0 
L 2202 1075 
L 243 1075 
L 243 1600 
L 2074 4531 
L 2662 4531 
L 2662 1498 
z
" transform="scale(0.015625)"/>
       </defs>
       <use xlink:href="#Avenir-Book-34"/>
      </g>
     </g>
    </g>
    <g id="xtick_4">
     <g id="line2d_4">
      <g>
       <use xlink:href="#m617b5350ee" x="374.089938" y="202.24" style="stroke: #000000; stroke-width: 0.8"/>
      </g>
     </g>
     <g id="text_4">
      <!-- 6 -->
      <g transform="translate(369.642438 221.335) scale(0.16 -0.16)">
       <defs>
        <path id="Avenir-Book-36" d="M 768 1325 
Q 768 1107 841 928 
Q 915 749 1049 617 
Q 1184 486 1369 416 
Q 1555 346 1779 346 
Q 2003 346 2188 416 
Q 2374 486 2508 617 
Q 2643 749 2716 928 
Q 2790 1107 2790 1325 
Q 2790 1542 2716 1721 
Q 2643 1901 2508 2029 
Q 2374 2157 2188 2230 
Q 2003 2304 1779 2304 
Q 1555 2304 1369 2230 
Q 1184 2157 1049 2029 
Q 915 1901 841 1721 
Q 768 1542 768 1325 
z
M 1229 2586 
L 1242 2573 
Q 1350 2650 1532 2688 
Q 1715 2726 1869 2726 
Q 2163 2726 2416 2620 
Q 2669 2515 2854 2329 
Q 3040 2144 3145 1888 
Q 3251 1632 3251 1325 
Q 3251 1011 3142 755 
Q 3034 499 2835 313 
Q 2637 128 2368 25 
Q 2099 -77 1779 -77 
Q 1459 -77 1190 25 
Q 922 128 723 313 
Q 525 499 416 755 
Q 307 1011 307 1325 
Q 307 1702 419 1984 
Q 531 2266 698 2541 
L 1920 4531 
L 2464 4531 
L 1229 2586 
z
" transform="scale(0.015625)"/>
       </defs>
       <use xlink:href="#Avenir-Book-36"/>
      </g>
     </g>
    </g>
    <g id="text_5">
     <!-- t -->
     <g transform="translate(218.74375 242.0375) scale(0.16 -0.16)">
      <defs>
       <path id="Avenir-Book-74" d="M 2010 2611 
L 1146 2611 
L 1146 845 
Q 1146 678 1178 572 
Q 1210 467 1267 409 
Q 1325 352 1405 329 
Q 1485 307 1581 307 
Q 1690 307 1805 339 
Q 1920 371 2016 422 
L 2035 32 
Q 1798 -77 1466 -77 
Q 1344 -77 1213 -45 
Q 1082 -13 973 76 
Q 864 166 793 320 
Q 723 474 723 723 
L 723 2611 
L 90 2611 
L 90 2995 
L 723 2995 
L 723 3840 
L 1146 3840 
L 1146 2995 
L 2010 2995 
L 2010 2611 
z
" transform="scale(0.015625)"/>
      </defs>
      <use xlink:href="#Avenir-Book-74"/>
     </g>
    </g>
   </g>
   <g id="matplotlib.axis_2">
    <g id="ytick_1">
     <g id="line2d_5">
      <defs>
       <path id="m2cd6aa81dd" d="M 0 0 
L -3.5 0 
" style="stroke: #000000; stroke-width: 0.8"/>
      </defs>
      <g>
       <use xlink:href="#m2cd6aa81dd" x="44" y="184.68" style="stroke: #000000; stroke-width: 0.8"/>
      </g>
     </g>
     <g id="text_6">
      <!-- 0.0 -->
      <g transform="translate(14.7625 190.7275) scale(0.16 -0.16)">
       <defs>
        <path id="Avenir-Book-2e" d="M 1235 307 
Q 1235 173 1139 67 
Q 1043 -38 890 -38 
Q 736 -38 640 67 
Q 544 173 544 307 
Q 544 442 640 547 
Q 736 653 890 653 
Q 1043 653 1139 547 
Q 1235 442 1235 307 
z
" transform="scale(0.015625)"/>
       </defs>
       <use xlink:href="#Avenir-Book-30"/>
       <use xlink:href="#Avenir-Book-2e" x="55.599991"/>
       <use xlink:href="#Avenir-Book-30" x="83.399979"/>
      </g>
     </g>
    </g>
    <g id="ytick_2">
     <g id="line2d_6">
      <g>
       <use xlink:href="#m2cd6aa81dd" x="44" y="139.045787" style="stroke: #000000; stroke-width: 0.8"/>
      </g>
     </g>
     <g id="text_7">
      <!-- 0.2 -->
      <g transform="translate(14.7625 145.093287) scale(0.16 -0.16)">
       <use xlink:href="#Avenir-Book-30"/>
       <use xlink:href="#Avenir-Book-2e" x="55.599991"/>
       <use xlink:href="#Avenir-Book-32" x="83.399979"/>
      </g>
     </g>
    </g>
    <g id="ytick_3">
     <g id="line2d_7">
      <g>
       <use xlink:href="#m2cd6aa81dd" x="44" y="93.411575" style="stroke: #000000; stroke-width: 0.8"/>
      </g>
     </g>
     <g id="text_8">
      <!-- 0.4 -->
      <g transform="translate(14.7625 99.459075) scale(0.16 -0.16)">
       <use xlink:href="#Avenir-Book-30"/>
       <use xlink:href="#Avenir-Book-2e" x="55.599991"/>
       <use xlink:href="#Avenir-Book-34" x="83.399979"/>
      </g>
     </g>
    </g>
    <g id="ytick_4">
     <g id="line2d_8">
      <g>
       <use xlink:href="#m2cd6aa81dd" x="44" y="47.777362" style="stroke: #000000; stroke-width: 0.8"/>
      </g>
     </g>
     <g id="text_9">
      <!-- 0.6 -->
      <g transform="translate(14.7625 53.824862) scale(0.16 -0.16)">
       <use xlink:href="#Avenir-Book-30"/>
       <use xlink:href="#Avenir-Book-2e" x="55.599991"/>
       <use xlink:href="#Avenir-Book-36" x="83.399979"/>
      </g>
     </g>
    </g>
    <g id="text_10">
     <!-- $I_{\mathbf{x},h}$ -->
     <g transform="translate(6.155 121.72) rotate(-90) scale(0.16 -0.16)">
      <defs>
       <path id="DejaVuSans-Oblique-49" d="M 1081 4666 
L 1716 4666 
L 806 0 
L 172 0 
L 1081 4666 
z
" transform="scale(0.015625)"/>
       <path id="DejaVuSans-Bold-78" d="M 1422 1791 
L 159 3500 
L 1344 3500 
L 2059 2463 
L 2784 3500 
L 3969 3500 
L 2706 1797 
L 4031 0 
L 2847 0 
L 2059 1106 
L 1281 0 
L 97 0 
L 1422 1791 
z
" transform="scale(0.015625)"/>
       <path id="DejaVuSans-2c" d="M 750 794 
L 1409 794 
L 1409 256 
L 897 -744 
L 494 -744 
L 750 256 
L 750 794 
z
" transform="scale(0.015625)"/>
       <path id="DejaVuSans-Oblique-68" d="M 3566 2113 
L 3156 0 
L 2578 0 
L 2988 2091 
Q 3016 2238 3031 2350 
Q 3047 2463 3047 2528 
Q 3047 2791 2881 2937 
Q 2716 3084 2419 3084 
Q 1956 3084 1617 2771 
Q 1278 2459 1178 1941 
L 800 0 
L 225 0 
L 1172 4863 
L 1747 4863 
L 1375 2950 
Q 1594 3244 1934 3414 
Q 2275 3584 2650 3584 
Q 3113 3584 3367 3334 
Q 3622 3084 3622 2631 
Q 3622 2519 3608 2391 
Q 3594 2263 3566 2113 
z
" transform="scale(0.015625)"/>
      </defs>
      <use xlink:href="#DejaVuSans-Oblique-49" transform="translate(0 0.09375)"/>
      <use xlink:href="#DejaVuSans-Bold-78" transform="translate(29.492188 -16.3125) scale(0.7)"/>
      <use xlink:href="#DejaVuSans-2c" transform="translate(74.643555 -16.3125) scale(0.7)"/>
      <use xlink:href="#DejaVuSans-Oblique-68" transform="translate(110.532227 -16.3125) scale(0.7)"/>
     </g>
    </g>
   </g>
   <g id="line2d_9">
    <path d="M 69.218182 184.68 
L 70.234421 184.599296 
L 71.75878 184.189857 
L 73.283139 183.462258 
L 74.807497 182.448192 
L 76.331856 181.179053 
L 78.364334 179.142686 
L 80.396813 176.775601 
L 82.937411 173.447359 
L 85.986128 169.054526 
L 90.051085 162.776146 
L 105.802793 138.014211 
L 110.375869 131.400395 
L 114.948945 125.183488 
L 119.013902 120.005299 
L 123.078859 115.155003 
L 127.143815 110.625286 
L 131.208772 106.404187 
L 135.273729 102.476995 
L 139.338686 98.827546 
L 143.911762 95.033059 
L 148.484838 91.545116 
L 153.057915 88.340597 
L 157.630991 85.397443 
L 162.712187 82.40858 
L 167.793383 79.690237 
L 172.874579 77.218003 
L 178.463894 74.756176 
L 184.05321 72.538095 
L 190.150645 70.36778 
L 196.24808 68.430207 
L 202.853635 66.564581 
L 209.967309 64.795249 
L 217.589103 63.141068 
L 225.719017 61.615459 
L 234.35705 60.226694 
L 243.503202 58.978347 
L 253.665594 57.816828 
L 264.844225 56.766517 
L 277.547215 55.807697 
L 291.774564 54.968715 
L 308.034391 54.243487 
L 326.834816 53.63519 
L 349.700197 53.129725 
L 373.581818 52.786287 
L 373.581818 52.786287 
" clip-path="url(#p5d49091c0c)" style="fill: none; stroke: #8bdab2; stroke-width: 2; stroke-linecap: square"/>
   </g>
   <g id="line2d_10">
    <path d="M 69.218182 184.68 
L 70.742541 184.548508 
L 72.266899 184.165405 
L 73.791258 183.548209 
L 75.315617 182.714811 
L 77.348095 181.298367 
L 79.380574 179.571645 
L 81.413052 177.575444 
L 83.95365 174.760132 
L 87.002368 171.004227 
L 90.559205 166.237081 
L 95.132281 159.718749 
L 114.948945 130.981438 
L 120.030141 124.182021 
L 125.111337 117.745438 
L 130.192533 111.690185 
L 134.765609 106.569886 
L 139.338686 101.757639 
L 143.911762 97.245115 
L 148.484838 93.021214 
L 153.057915 89.073132 
L 158.139111 84.993134 
L 163.220307 81.217273 
L 168.301503 77.726149 
L 173.382698 74.500772 
L 178.463894 71.522828 
L 184.05321 68.512037 
L 189.642525 65.757526 
L 195.231841 63.238722 
L 201.329276 60.737277 
L 207.426711 58.470548 
L 214.032266 56.255313 
L 220.637821 54.2662 
L 227.751495 52.351428 
L 235.373289 50.533707 
L 243.503202 48.830998 
L 252.141235 47.256461 
L 261.287388 45.818596 
L 270.94166 44.521547 
L 281.612172 43.312773 
L 293.298922 42.216403 
L 306.001912 41.247343 
L 320.229261 40.384555 
L 336.489088 39.625158 
L 355.289513 38.976039 
L 373.581818 38.518866 
L 373.581818 38.518866 
" clip-path="url(#p5d49091c0c)" style="fill: none; stroke: #40b7ad; stroke-width: 2; stroke-linecap: square"/>
   </g>
   <g id="line2d_11">
    <path d="M 69.218182 184.68 
L 70.742541 184.580345 
L 72.266899 184.293003 
L 74.299378 183.646092 
L 76.331856 182.729797 
L 78.364334 181.575512 
L 80.904932 179.840171 
L 83.44553 177.824067 
L 86.494248 175.091906 
L 90.051085 171.549515 
L 94.116042 167.132577 
L 98.689118 161.814929 
L 104.786553 154.348999 
L 117.489543 138.298727 
L 126.127576 127.582272 
L 132.733131 119.715151 
L 138.830566 112.786085 
L 144.419882 106.751994 
L 150.009197 101.041293 
L 155.598513 95.663095 
L 161.187828 90.618979 
L 166.269024 86.319927 
L 171.35022 82.287419 
L 176.431416 78.513145 
L 182.020732 74.647949 
L 187.610047 71.068843 
L 193.199363 67.760482 
L 198.788678 64.707128 
L 204.377994 61.892999 
L 210.475429 59.077603 
L 216.572864 56.508773 
L 223.178419 53.982289 
L 229.783973 51.700359 
L 236.897648 49.491936 
L 244.011322 47.51759 
L 251.633116 45.636006 
L 259.763029 43.867248 
L 268.401062 42.226522 
L 277.547215 40.724188 
L 287.201487 39.365968 
L 297.871999 38.097928 
L 309.558749 36.946281 
L 322.261739 35.927564 
L 336.489088 35.020392 
L 352.240795 34.244026 
L 370.533101 33.572491 
L 373.581818 33.48 
L 373.581818 33.48 
" clip-path="url(#p5d49091c0c)" style="fill: none; stroke: #348fa7; stroke-width: 2; stroke-linecap: square"/>
   </g>
   <g id="line2d_12">
    <path d="M 69.218182 184.68 
L 70.742541 184.561831 
L 72.266899 184.23147 
L 74.299378 183.51683 
L 76.331856 182.548064 
L 78.872454 181.059205 
L 81.921172 178.967147 
L 85.478009 176.2253 
L 89.542966 172.81409 
L 94.624161 168.25652 
L 100.721597 162.468979 
L 107.835271 155.377791 
L 116.473304 146.414627 
L 141.879284 119.784413 
L 148.992958 112.775743 
L 155.598513 106.58817 
L 161.695948 101.186338 
L 167.285263 96.513012 
L 172.874579 92.113641 
L 178.463894 87.989823 
L 184.05321 84.138621 
L 189.642525 80.553604 
L 195.231841 77.225764 
L 200.821156 74.144265 
L 206.918592 71.049399 
L 213.016027 68.216747 
L 219.113462 65.629268 
L 225.210897 63.269915 
L 231.816452 60.951997 
L 238.422006 58.861652 
L 245.535681 56.842604 
L 253.157475 54.920991 
L 260.779268 53.223763 
L 268.909182 51.633639 
L 277.547215 50.164269 
L 287.201487 48.756143 
L 297.363879 47.503681 
L 308.54251 46.356462 
L 320.73738 45.334327 
L 334.45661 44.417438 
L 349.700197 43.628356 
L 366.976263 42.958741 
L 373.581818 42.752884 
L 373.581818 42.752884 
" clip-path="url(#p5d49091c0c)" style="fill: none; stroke: #37659e; stroke-width: 2; stroke-linecap: square"/>
   </g>
   <g id="line2d_13">
    <path d="M 69.218182 184.68 
L 70.234421 184.600688 
L 71.75878 184.219004 
L 73.283139 183.582267 
L 75.315617 182.435445 
L 77.856215 180.673986 
L 81.413052 177.864737 
L 120.538261 145.444015 
L 133.241251 134.361249 
L 145.436121 123.802233 
L 153.057915 117.485818 
L 159.663469 112.283946 
L 165.760905 107.747632 
L 171.85834 103.488664 
L 177.955775 99.51818 
L 183.54509 96.134342 
L 189.134406 92.992261 
L 194.723721 90.085514 
L 200.821156 87.172327 
L 206.918592 84.514525 
L 213.016027 82.096631 
L 219.621581 79.729144 
L 226.227136 77.603305 
L 233.34081 75.560659 
L 240.454485 73.749826 
L 248.076279 72.040484 
L 256.206192 70.451175 
L 264.844225 68.995016 
L 273.990378 67.67981 
L 284.15277 66.45228 
L 294.823281 65.386564 
L 307.018151 64.399626 
L 320.229261 63.555125 
L 335.472849 62.808247 
L 353.257034 62.169661 
L 373.581818 61.661092 
L 373.581818 61.661092 
" clip-path="url(#p5d49091c0c)" style="fill: none; stroke: #413d7b; stroke-width: 2; stroke-linecap: square"/>
   </g>
   <g id="patch_3">
    <path d="M 44 192.24 
L 44 25.92 
" style="fill: none; stroke: #000000; stroke-width: 0.8; stroke-linejoin: miter; stroke-linecap: square"/>
   </g>
   <g id="patch_4">
    <path d="M 54 202.24 
L 388.8 202.24 
" style="fill: none; stroke: #000000; stroke-width: 0.8; stroke-linejoin: miter; stroke-linecap: square"/>
   </g>
   <g id="legend_1">
    <g id="patch_5">
     <path d="M 174.0525 184.24 
L 377.6 184.24 
Q 380.8 184.24 380.8 181.04 
L 380.8 108.5325 
Q 380.8 105.3325 377.6 105.3325 
L 174.0525 105.3325 
Q 170.8525 105.3325 170.8525 108.5325 
L 170.8525 181.04 
Q 170.8525 184.24 174.0525 184.24 
z
" style="fill: #ffffff; opacity: 0.8; stroke: #cccccc; stroke-linejoin: miter"/>
    </g>
    <g id="line2d_14">
     <path d="M 177.2525 118.2275 
L 193.2525 118.2275 
L 209.2525 118.2275 
" style="fill: none; stroke: #8bdab2; stroke-width: 2; stroke-linecap: square"/>
    </g>
    <g id="text_11">
     <!-- w=0.1 -->
     <g transform="translate(222.0525 123.8275) scale(0.16 -0.16)">
      <defs>
       <path id="Avenir-Book-77" d="M 589 2995 
L 1280 563 
L 1293 563 
L 2093 2995 
L 2528 2995 
L 3328 563 
L 3341 563 
L 4032 2995 
L 4531 2995 
L 3584 0 
L 3110 0 
L 2317 2458 
L 2304 2458 
L 1510 0 
L 1037 0 
L 90 2995 
L 589 2995 
z
" transform="scale(0.015625)"/>
       <path id="Avenir-Book-3d" d="M 3763 1651 
L 3763 1267 
L 499 1267 
L 499 1651 
L 3763 1651 
z
M 3763 2611 
L 3763 2227 
L 499 2227 
L 499 2611 
L 3763 2611 
z
" transform="scale(0.015625)"/>
       <path id="Avenir-Book-31" d="M 2227 0 
L 1766 0 
L 1766 3955 
L 954 3238 
L 666 3584 
L 1818 4531 
L 2227 4531 
L 2227 0 
z
" transform="scale(0.015625)"/>
      </defs>
      <use xlink:href="#Avenir-Book-77"/>
      <use xlink:href="#Avenir-Book-3d" x="72.199982"/>
      <use xlink:href="#Avenir-Book-30" x="138.799973"/>
      <use xlink:href="#Avenir-Book-2e" x="194.399963"/>
      <use xlink:href="#Avenir-Book-31" x="222.199951"/>
     </g>
    </g>
    <g id="line2d_15">
     <path d="M 177.2525 142.93 
L 193.2525 142.93 
L 209.2525 142.93 
" style="fill: none; stroke: #40b7ad; stroke-width: 2; stroke-linecap: square"/>
    </g>
    <g id="text_12">
     <!-- w=0.4 -->
     <g transform="translate(222.0525 148.53) scale(0.16 -0.16)">
      <use xlink:href="#Avenir-Book-77"/>
      <use xlink:href="#Avenir-Book-3d" x="72.199982"/>
      <use xlink:href="#Avenir-Book-30" x="138.799973"/>
      <use xlink:href="#Avenir-Book-2e" x="194.399963"/>
      <use xlink:href="#Avenir-Book-34" x="222.199951"/>
     </g>
    </g>
    <g id="line2d_16">
     <path d="M 177.2525 167.6325 
L 193.2525 167.6325 
L 209.2525 167.6325 
" style="fill: none; stroke: #348fa7; stroke-width: 2; stroke-linecap: square"/>
    </g>
    <g id="text_13">
     <!-- w=1 -->
     <g transform="translate(222.0525 173.2325) scale(0.16 -0.16)">
      <use xlink:href="#Avenir-Book-77"/>
      <use xlink:href="#Avenir-Book-3d" x="72.199982"/>
      <use xlink:href="#Avenir-Book-31" x="138.799973"/>
     </g>
    </g>
    <g id="line2d_17">
     <path d="M 298.4975 118.2275 
L 314.4975 118.2275 
L 330.4975 118.2275 
" style="fill: none; stroke: #37659e; stroke-width: 2; stroke-linecap: square"/>
    </g>
    <g id="text_14">
     <!-- w=2 -->
     <g transform="translate(343.2975 123.8275) scale(0.16 -0.16)">
      <use xlink:href="#Avenir-Book-77"/>
      <use xlink:href="#Avenir-Book-3d" x="72.199982"/>
      <use xlink:href="#Avenir-Book-32" x="138.799973"/>
     </g>
    </g>
    <g id="line2d_18">
     <path d="M 298.4975 142.93 
L 314.4975 142.93 
L 330.4975 142.93 
" style="fill: none; stroke: #413d7b; stroke-width: 2; stroke-linecap: square"/>
    </g>
    <g id="text_15">
     <!-- w=5 -->
     <g transform="translate(343.2975 148.53) scale(0.16 -0.16)">
      <defs>
       <path id="Avenir-Book-35" d="M 2976 4109 
L 1120 4109 
L 1094 2746 
Q 1242 2803 1395 2828 
Q 1549 2854 1702 2854 
Q 2022 2854 2284 2745 
Q 2547 2637 2736 2441 
Q 2925 2246 3030 1980 
Q 3136 1715 3136 1402 
Q 3136 1075 3021 803 
Q 2906 531 2701 336 
Q 2496 141 2217 32 
Q 1939 -77 1613 -77 
Q 1184 -77 838 128 
Q 493 333 307 730 
L 762 928 
Q 890 659 1120 502 
Q 1350 346 1651 346 
Q 1869 346 2054 426 
Q 2240 506 2377 640 
Q 2515 774 2595 960 
Q 2675 1146 2675 1357 
Q 2675 1594 2592 1792 
Q 2509 1990 2361 2134 
Q 2214 2278 2009 2355 
Q 1805 2432 1562 2432 
Q 1318 2432 1078 2365 
Q 838 2298 621 2182 
L 666 4531 
L 2976 4531 
L 2976 4109 
z
" transform="scale(0.015625)"/>
      </defs>
      <use xlink:href="#Avenir-Book-77"/>
      <use xlink:href="#Avenir-Book-3d" x="72.199982"/>
      <use xlink:href="#Avenir-Book-35" x="138.799973"/>
     </g>
    </g>
   </g>
  </g>
  <g id="axes_2">
   <g id="patch_6">
    <path d="M 86.4 43.2 
L 172.8 43.2 
L 172.8 0 
L 86.4 0 
L 86.4 43.2 
z
" style="fill: none"/>
   </g>
   <g id="matplotlib.axis_3">
    <g id="xtick_5">
     <g id="line2d_19">
      <g>
       <use xlink:href="#m617b5350ee" x="90.327273" y="53.2" style="stroke: #000000; stroke-width: 0.8"/>
      </g>
     </g>
     <g id="text_16">
      <!-- 0.0 -->
      <g transform="translate(79.208523 72.295) scale(0.16 -0.16)">
       <use xlink:href="#Avenir-Book-30"/>
       <use xlink:href="#Avenir-Book-2e" x="55.599991"/>
       <use xlink:href="#Avenir-Book-30" x="83.399979"/>
      </g>
     </g>
    </g>
    <g id="xtick_6">
     <g id="line2d_20">
      <g>
       <use xlink:href="#m617b5350ee" x="170.475696" y="53.2" style="stroke: #000000; stroke-width: 0.8"/>
      </g>
     </g>
     <g id="text_17">
      <!-- 0.5 -->
      <g transform="translate(159.356946 72.295) scale(0.16 -0.16)">
       <use xlink:href="#Avenir-Book-30"/>
       <use xlink:href="#Avenir-Book-2e" x="55.599991"/>
       <use xlink:href="#Avenir-Book-35" x="83.399979"/>
      </g>
     </g>
    </g>
   </g>
   <g id="matplotlib.axis_4">
    <g id="ytick_5">
     <g id="line2d_21">
      <g>
       <use xlink:href="#m2cd6aa81dd" x="76.4" y="41.236364" style="stroke: #000000; stroke-width: 0.8"/>
      </g>
     </g>
     <g id="text_18">
      <!-- 0.0 -->
      <g transform="translate(47.1625 47.283864) scale(0.16 -0.16)">
       <use xlink:href="#Avenir-Book-30"/>
       <use xlink:href="#Avenir-Book-2e" x="55.599991"/>
       <use xlink:href="#Avenir-Book-30" x="83.399979"/>
      </g>
     </g>
    </g>
    <g id="ytick_6">
     <g id="line2d_22">
      <g>
       <use xlink:href="#m2cd6aa81dd" x="76.4" y="9.68402" style="stroke: #000000; stroke-width: 0.8"/>
      </g>
     </g>
     <g id="text_19">
      <!-- 0.1 -->
      <g transform="translate(47.1625 15.73152) scale(0.16 -0.16)">
       <use xlink:href="#Avenir-Book-30"/>
       <use xlink:href="#Avenir-Book-2e" x="55.599991"/>
       <use xlink:href="#Avenir-Book-31" x="83.399979"/>
      </g>
     </g>
    </g>
   </g>
   <g id="line2d_23">
    <path d="M 90.327273 41.236364 
L 91.930241 41.208204 
L 93.53321 41.124763 
L 95.136178 40.987613 
L 96.739147 40.798348 
L 98.342115 40.558576 
L 99.945083 40.269914 
L 101.548052 39.933988 
L 103.15102 39.552425 
L 104.753989 39.12685 
L 106.356957 38.658884 
L 107.959926 38.150136 
L 109.562894 37.602207 
L 111.165863 37.016681 
L 112.768831 36.395124 
L 114.3718 35.739083 
L 115.974768 35.05008 
L 117.577737 34.329615 
L 119.180705 33.57916 
L 120.783673 32.800159 
L 122.386642 31.994027 
L 123.98961 31.162145 
L 125.592579 30.305866 
L 127.195547 29.426508 
L 128.798516 28.525354 
L 130.401484 27.603656 
L 132.004453 26.662628 
L 133.607421 25.703449 
L 135.21039 24.727266 
L 136.813358 23.735188 
L 138.416327 22.728288 
L 140.019295 21.707606 
L 141.622263 20.674146 
L 143.225232 19.628877 
L 144.8282 18.572735 
L 146.431169 17.506621 
L 148.034137 16.431403 
L 149.637106 15.347918 
L 151.240074 14.256968 
L 152.843043 13.159325 
L 154.446011 12.055732 
L 156.04898 10.946899 
L 157.651948 9.833509 
L 159.254917 8.716214 
L 160.857885 7.59564 
L 162.460853 6.472387 
L 164.063822 5.347025 
L 165.66679 4.220102 
L 167.269759 3.09214 
L 168.872727 1.963636 
" clip-path="url(#pea11a41d37)" style="fill: none; stroke: #8bdab2; stroke-width: 2; stroke-linecap: square"/>
   </g>
   <g id="line2d_24">
    <path d="M 90.327273 41.236364 
L 91.930241 41.215874 
L 93.53321 41.154975 
L 95.136178 41.054531 
L 96.739147 40.91542 
L 98.342115 40.73853 
L 99.945083 40.524762 
L 101.548052 40.275021 
L 103.15102 39.990222 
L 104.753989 39.671281 
L 106.356957 39.31912 
L 107.959926 38.934661 
L 109.562894 38.518827 
L 111.165863 38.072538 
L 112.768831 37.596715 
L 114.3718 37.092271 
L 115.974768 36.560116 
L 117.577737 36.001153 
L 119.180705 35.416279 
L 120.783673 34.806382 
L 122.386642 34.17234 
L 123.98961 33.515021 
L 125.592579 32.835282 
L 127.195547 32.133971 
L 128.798516 31.41192 
L 130.401484 30.669949 
L 132.004453 29.908866 
L 133.607421 29.129464 
L 135.21039 28.332521 
L 136.813358 27.518801 
L 138.416327 26.689052 
L 140.019295 25.844009 
L 141.622263 24.984388 
L 143.225232 24.110891 
L 144.8282 23.224203 
L 146.431169 22.324995 
L 148.034137 21.41392 
L 149.637106 20.491615 
L 151.240074 19.5587 
L 152.843043 18.615782 
L 154.446011 17.663448 
L 156.04898 16.702271 
L 157.651948 15.732809 
L 159.254917 14.755603 
L 160.857885 13.771177 
L 162.460853 12.780042 
L 164.063822 11.782693 
L 165.66679 10.779609 
L 167.269759 9.771257 
L 168.872727 8.758085 
" clip-path="url(#pea11a41d37)" style="fill: none; stroke: #40b7ad; stroke-width: 2; stroke-linecap: square"/>
   </g>
   <g id="line2d_25">
    <path d="M 90.327273 41.236364 
L 91.930241 41.220744 
L 93.53321 41.174505 
L 95.136178 41.098557 
L 96.739147 40.993787 
L 98.342115 40.861058 
L 99.945083 40.70121 
L 101.548052 40.515061 
L 103.15102 40.303404 
L 104.753989 40.067013 
L 106.356957 39.806637 
L 107.959926 39.523005 
L 109.562894 39.216825 
L 111.165863 38.888784 
L 112.768831 38.53955 
L 114.3718 38.169771 
L 115.974768 37.780076 
L 117.577737 37.371075 
L 119.180705 36.943362 
L 120.783673 36.497511 
L 122.386642 36.034081 
L 123.98961 35.553616 
L 125.592579 35.056641 
L 127.195547 34.543667 
L 128.798516 34.015192 
L 130.401484 33.471698 
L 132.004453 32.913654 
L 133.607421 32.341515 
L 135.21039 31.755724 
L 136.813358 31.156712 
L 138.416327 30.544897 
L 140.019295 29.920686 
L 141.622263 29.284476 
L 143.225232 28.636652 
L 144.8282 27.97759 
L 146.431169 27.307655 
L 148.034137 26.627203 
L 149.637106 25.936582 
L 151.240074 25.236129 
L 152.843043 24.526175 
L 154.446011 23.807041 
L 156.04898 23.07904 
L 157.651948 22.34248 
L 159.254917 21.597658 
L 160.857885 20.844868 
L 162.460853 20.084393 
L 164.063822 19.316513 
L 165.66679 18.5415 
L 167.269759 17.75962 
L 168.872727 16.971133 
" clip-path="url(#pea11a41d37)" style="fill: none; stroke: #348fa7; stroke-width: 2; stroke-linecap: square"/>
   </g>
   <g id="line2d_26">
    <path d="M 90.327273 41.236364 
L 91.930241 41.217555 
L 93.53321 41.162447 
L 95.136178 41.072956 
L 96.739147 40.950914 
L 98.342115 40.798077 
L 99.945083 40.616119 
L 101.548052 40.406638 
L 103.15102 40.171153 
L 104.753989 39.911112 
L 106.356957 39.627889 
L 107.959926 39.322787 
L 109.562894 38.997043 
L 111.165863 38.651827 
L 112.768831 38.288244 
L 114.3718 37.907339 
L 115.974768 37.510099 
L 117.577737 37.097453 
L 119.180705 36.670276 
L 120.783673 36.229393 
L 122.386642 35.775576 
L 123.98961 35.309554 
L 125.592579 34.832008 
L 127.195547 34.343577 
L 128.798516 33.844861 
L 130.401484 33.336418 
L 132.004453 32.818774 
L 133.607421 32.292417 
L 135.21039 31.757805 
L 136.813358 31.215362 
L 138.416327 30.665487 
L 140.019295 30.108548 
L 141.622263 29.54489 
L 143.225232 28.974833 
L 144.8282 28.398674 
L 146.431169 27.816689 
L 148.034137 27.229136 
L 149.637106 26.636252 
L 151.240074 26.038257 
L 152.843043 25.435357 
L 154.446011 24.827742 
L 156.04898 24.215588 
L 157.651948 23.599057 
L 159.254917 22.978302 
L 160.857885 22.353464 
L 162.460853 21.724671 
L 164.063822 21.092046 
L 165.66679 20.455702 
L 167.269759 19.815742 
L 168.872727 19.172266 
" clip-path="url(#pea11a41d37)" style="fill: none; stroke: #37659e; stroke-width: 2; stroke-linecap: square"/>
   </g>
   <g id="line2d_27">
    <path d="M 90.327273 41.236364 
L 91.930241 41.208274 
L 93.53321 41.126688 
L 95.136178 40.995491 
L 96.739147 40.818385 
L 98.342115 40.598882 
L 99.945083 40.34031 
L 101.548052 40.045819 
L 103.15102 39.718378 
L 104.753989 39.36078 
L 106.356957 38.975655 
L 107.959926 38.565463 
L 109.562894 38.132509 
L 111.165863 37.678947 
L 112.768831 37.206784 
L 114.3718 36.717886 
L 115.974768 36.213988 
L 117.577737 35.696698 
L 119.180705 35.167502 
L 120.783673 34.627774 
L 122.386642 34.078779 
L 123.98961 33.521678 
L 125.592579 32.957539 
L 127.195547 32.387338 
L 128.798516 31.811964 
L 130.401484 31.232229 
L 132.004453 30.648869 
L 133.607421 30.062549 
L 135.21039 29.47387 
L 136.813358 28.88337 
L 138.416327 28.291532 
L 140.019295 27.698785 
L 141.622263 27.105509 
L 143.225232 26.512039 
L 144.8282 25.918667 
L 146.431169 25.325646 
L 148.034137 24.733193 
L 149.637106 24.141493 
L 151.240074 23.550699 
L 152.843043 22.960936 
L 154.446011 22.372306 
L 156.04898 21.784883 
L 157.651948 21.198724 
L 159.254917 20.613864 
L 160.857885 20.030323 
L 162.460853 19.448101 
L 164.063822 18.867189 
L 165.66679 18.287562 
L 167.269759 17.709183 
L 168.872727 17.132009 
" clip-path="url(#pea11a41d37)" style="fill: none; stroke: #413d7b; stroke-width: 2; stroke-linecap: square"/>
   </g>
   <g id="patch_7">
    <path d="M 76.4 43.2 
L 76.4 -0 
" style="fill: none; stroke: #000000; stroke-width: 0.8; stroke-linejoin: miter; stroke-linecap: square"/>
   </g>
   <g id="patch_8">
    <path d="M 86.4 53.2 
L 172.8 53.2 
" style="fill: none; stroke: #000000; stroke-width: 0.8; stroke-linejoin: miter; stroke-linecap: square"/>
   </g>
  </g>
 </g>
 <defs>
  <clipPath id="p5d49091c0c">
   <rect x="54" y="25.92" width="334.8" height="166.32"/>
  </clipPath>
  <clipPath id="pea11a41d37">
   <rect x="86.4" y="0" width="86.4" height="43.2"/>
  </clipPath>
 </defs>
</svg>
