<?xml version="1.0" encoding="utf-8" standalone="no"?>
<!DOCTYPE svg PUBLIC "-//W3C//DTD SVG 1.1//EN"
  "http://www.w3.org/Graphics/SVG/1.1/DTD/svg11.dtd">
<svg xmlns:xlink="http://www.w3.org/1999/xlink" width="432pt" height="288pt" viewBox="0 0 432 288" xmlns="http://www.w3.org/2000/svg" version="1.1">
 <metadata>
  <rdf:RDF xmlns:dc="http://purl.org/dc/elements/1.1/" xmlns:cc="http://creativecommons.org/ns#" xmlns:rdf="http://www.w3.org/1999/02/22-rdf-syntax-ns#">
   <cc:Work>
    <dc:type rdf:resource="http://purl.org/dc/dcmitype/StillImage"/>
    <dc:date>2024-05-10T14:45:53.027077</dc:date>
    <dc:format>image/svg+xml</dc:format>
    <dc:creator>
     <cc:Agent>
      <dc:title>Matplotlib v3.7.0, https://matplotlib.org/</dc:title>
     </cc:Agent>
    </dc:creator>
   </cc:Work>
  </rdf:RDF>
 </metadata>
 <defs>
  <style type="text/css">*{stroke-linejoin: round; stroke-linecap: butt}</style>
 </defs>
 <g id="figure_1">
  <g id="patch_1">
   <path d="M 0 288 
L 432 288 
L 432 0 
L 0 0 
L 0 288 
z
" style="fill: none"/>
  </g>
  <g id="axes_1">
   <g id="line2d_1">
    <path d="M 69.218182 78.968392 
L 112.325478 78.968392 
L 112.760905 36.674685 
L 373.581818 36.674685 
L 373.581818 36.674685 
" clip-path="url(#p368352174d)" style="fill: none; stroke: #000000; stroke-width: 1.5; stroke-linecap: square"/>
   </g>
  </g>
  <g id="axes_2">
   <g id="patch_2">
    <path d="M 54 256.32 
L 388.8 256.32 
L 388.8 101.243077 
L 54 101.243077 
L 54 256.32 
z
" style="fill: none"/>
   </g>
   <g id="matplotlib.axis_1">
    <g id="xtick_1">
     <g id="line2d_2">
      <defs>
       <path id="m23108bbfb2" d="M 0 0 
L 0 3.5 
" style="stroke: #000000; stroke-width: 0.8"/>
      </defs>
      <g>
       <use xlink:href="#m23108bbfb2" x="112.760905" y="266.32" style="stroke: #000000; stroke-width: 0.8"/>
      </g>
     </g>
     <g id="text_1">
      <!-- 0 -->
      <g transform="translate(108.313405 285.415) scale(0.16 -0.16)">
       <defs>
        <path id="Avenir-Book-30" d="M 1779 4186 
Q 1408 4186 1193 3987 
Q 979 3789 870 3494 
Q 762 3200 733 2867 
Q 704 2534 704 2266 
Q 704 1997 733 1664 
Q 762 1331 870 1036 
Q 979 742 1193 544 
Q 1408 346 1779 346 
Q 2150 346 2364 544 
Q 2579 742 2688 1036 
Q 2797 1331 2825 1664 
Q 2854 1997 2854 2266 
Q 2854 2534 2825 2867 
Q 2797 3200 2688 3494 
Q 2579 3789 2364 3987 
Q 2150 4186 1779 4186 
z
M 1779 4608 
Q 2266 4608 2566 4384 
Q 2867 4160 3033 3814 
Q 3200 3469 3257 3056 
Q 3315 2643 3315 2266 
Q 3315 1888 3257 1475 
Q 3200 1062 3033 716 
Q 2867 371 2566 147 
Q 2266 -77 1779 -77 
Q 1293 -77 992 147 
Q 691 371 524 716 
Q 358 1062 300 1475 
Q 243 1888 243 2266 
Q 243 2643 300 3056 
Q 358 3469 524 3814 
Q 691 4160 992 4384 
Q 1293 4608 1779 4608 
z
" transform="scale(0.015625)"/>
       </defs>
       <use xlink:href="#Avenir-Book-30"/>
      </g>
     </g>
    </g>
    <g id="xtick_2">
     <g id="line2d_3">
      <g>
       <use xlink:href="#m23108bbfb2" x="199.846352" y="266.32" style="stroke: #000000; stroke-width: 0.8"/>
      </g>
     </g>
     <g id="text_2">
      <!-- 2 -->
      <g transform="translate(195.398852 285.415) scale(0.16 -0.16)">
       <defs>
        <path id="Avenir-Book-32" d="M 3187 0 
L 307 0 
L 307 531 
L 2112 2368 
Q 2214 2470 2316 2585 
Q 2419 2701 2502 2829 
Q 2586 2957 2637 3097 
Q 2688 3238 2688 3392 
Q 2688 3578 2621 3725 
Q 2554 3872 2432 3974 
Q 2310 4077 2150 4131 
Q 1990 4186 1811 4186 
Q 1466 4186 1222 3994 
Q 979 3802 909 3475 
L 422 3526 
Q 518 4032 886 4320 
Q 1254 4608 1779 4608 
Q 2054 4608 2300 4534 
Q 2547 4461 2736 4313 
Q 2925 4166 3037 3945 
Q 3149 3725 3149 3430 
Q 3149 3168 3069 2950 
Q 2989 2733 2861 2541 
Q 2733 2349 2569 2176 
Q 2406 2003 2234 1837 
L 806 422 
L 3187 422 
L 3187 0 
z
" transform="scale(0.015625)"/>
       </defs>
       <use xlink:href="#Avenir-Book-32"/>
      </g>
     </g>
    </g>
    <g id="xtick_3">
     <g id="line2d_4">
      <g>
       <use xlink:href="#m23108bbfb2" x="286.931799" y="266.32" style="stroke: #000000; stroke-width: 0.8"/>
      </g>
     </g>
     <g id="text_3">
      <!-- 4 -->
      <g transform="translate(282.484299 285.415) scale(0.16 -0.16)">
       <defs>
        <path id="Avenir-Book-34" d="M 2202 4070 
L 2189 4070 
L 627 1498 
L 2202 1498 
L 2202 4070 
z
M 2662 1498 
L 3315 1498 
L 3315 1075 
L 2662 1075 
L 2662 0 
L 2202 0 
L 2202 1075 
L 243 1075 
L 243 1600 
L 2074 4531 
L 2662 4531 
L 2662 1498 
z
" transform="scale(0.015625)"/>
       </defs>
       <use xlink:href="#Avenir-Book-34"/>
      </g>
     </g>
    </g>
    <g id="xtick_4">
     <g id="line2d_5">
      <g>
       <use xlink:href="#m23108bbfb2" x="374.017245" y="266.32" style="stroke: #000000; stroke-width: 0.8"/>
      </g>
     </g>
     <g id="text_4">
      <!-- 6 -->
      <g transform="translate(369.569745 285.415) scale(0.16 -0.16)">
       <defs>
        <path id="Avenir-Book-36" d="M 768 1325 
Q 768 1107 841 928 
Q 915 749 1049 617 
Q 1184 486 1369 416 
Q 1555 346 1779 346 
Q 2003 346 2188 416 
Q 2374 486 2508 617 
Q 2643 749 2716 928 
Q 2790 1107 2790 1325 
Q 2790 1542 2716 1721 
Q 2643 1901 2508 2029 
Q 2374 2157 2188 2230 
Q 2003 2304 1779 2304 
Q 1555 2304 1369 2230 
Q 1184 2157 1049 2029 
Q 915 1901 841 1721 
Q 768 1542 768 1325 
z
M 1229 2586 
L 1242 2573 
Q 1350 2650 1532 2688 
Q 1715 2726 1869 2726 
Q 2163 2726 2416 2620 
Q 2669 2515 2854 2329 
Q 3040 2144 3145 1888 
Q 3251 1632 3251 1325 
Q 3251 1011 3142 755 
Q 3034 499 2835 313 
Q 2637 128 2368 25 
Q 2099 -77 1779 -77 
Q 1459 -77 1190 25 
Q 922 128 723 313 
Q 525 499 416 755 
Q 307 1011 307 1325 
Q 307 1702 419 1984 
Q 531 2266 698 2541 
L 1920 4531 
L 2464 4531 
L 1229 2586 
z
" transform="scale(0.015625)"/>
       </defs>
       <use xlink:href="#Avenir-Book-36"/>
      </g>
     </g>
    </g>
    <g id="text_5">
     <!-- t -->
     <g transform="translate(218.74375 306.1175) scale(0.16 -0.16)">
      <defs>
       <path id="Avenir-Book-74" d="M 2010 2611 
L 1146 2611 
L 1146 845 
Q 1146 678 1178 572 
Q 1210 467 1267 409 
Q 1325 352 1405 329 
Q 1485 307 1581 307 
Q 1690 307 1805 339 
Q 1920 371 2016 422 
L 2035 32 
Q 1798 -77 1466 -77 
Q 1344 -77 1213 -45 
Q 1082 -13 973 76 
Q 864 166 793 320 
Q 723 474 723 723 
L 723 2611 
L 90 2611 
L 90 2995 
L 723 2995 
L 723 3840 
L 1146 3840 
L 1146 2995 
L 2010 2995 
L 2010 2611 
z
" transform="scale(0.015625)"/>
      </defs>
      <use xlink:href="#Avenir-Book-74"/>
     </g>
    </g>
   </g>
   <g id="matplotlib.axis_2">
    <g id="ytick_1">
     <g id="line2d_6">
      <defs>
       <path id="md8d95f6ca4" d="M 0 0 
L -3.5 0 
" style="stroke: #000000; stroke-width: 0.8"/>
      </defs>
      <g>
       <use xlink:href="#md8d95f6ca4" x="44" y="249.271049" style="stroke: #000000; stroke-width: 0.8"/>
      </g>
     </g>
     <g id="text_6">
      <!-- 0.0 -->
      <g transform="translate(14.7625 255.318549) scale(0.16 -0.16)">
       <defs>
        <path id="Avenir-Book-2e" d="M 1235 307 
Q 1235 173 1139 67 
Q 1043 -38 890 -38 
Q 736 -38 640 67 
Q 544 173 544 307 
Q 544 442 640 547 
Q 736 653 890 653 
Q 1043 653 1139 547 
Q 1235 442 1235 307 
z
" transform="scale(0.015625)"/>
       </defs>
       <use xlink:href="#Avenir-Book-30"/>
       <use xlink:href="#Avenir-Book-2e" x="55.599991"/>
       <use xlink:href="#Avenir-Book-30" x="83.399979"/>
      </g>
     </g>
    </g>
    <g id="ytick_2">
     <g id="line2d_7">
      <g>
       <use xlink:href="#md8d95f6ca4" x="44" y="206.721667" style="stroke: #000000; stroke-width: 0.8"/>
      </g>
     </g>
     <g id="text_7">
      <!-- 0.2 -->
      <g transform="translate(14.7625 212.769167) scale(0.16 -0.16)">
       <use xlink:href="#Avenir-Book-30"/>
       <use xlink:href="#Avenir-Book-2e" x="55.599991"/>
       <use xlink:href="#Avenir-Book-32" x="83.399979"/>
      </g>
     </g>
    </g>
    <g id="ytick_3">
     <g id="line2d_8">
      <g>
       <use xlink:href="#md8d95f6ca4" x="44" y="164.172284" style="stroke: #000000; stroke-width: 0.8"/>
      </g>
     </g>
     <g id="text_8">
      <!-- 0.4 -->
      <g transform="translate(14.7625 170.219784) scale(0.16 -0.16)">
       <use xlink:href="#Avenir-Book-30"/>
       <use xlink:href="#Avenir-Book-2e" x="55.599991"/>
       <use xlink:href="#Avenir-Book-34" x="83.399979"/>
      </g>
     </g>
    </g>
    <g id="ytick_4">
     <g id="line2d_9">
      <g>
       <use xlink:href="#md8d95f6ca4" x="44" y="121.622902" style="stroke: #000000; stroke-width: 0.8"/>
      </g>
     </g>
     <g id="text_9">
      <!-- 0.6 -->
      <g transform="translate(14.7625 127.670402) scale(0.16 -0.16)">
       <use xlink:href="#Avenir-Book-30"/>
       <use xlink:href="#Avenir-Book-2e" x="55.599991"/>
       <use xlink:href="#Avenir-Book-36" x="83.399979"/>
      </g>
     </g>
    </g>
    <g id="text_10">
     <!-- $I_{\mathbf{x},h}$ -->
     <g transform="translate(6.155 191.421538) rotate(-90) scale(0.16 -0.16)">
      <defs>
       <path id="DejaVuSans-Oblique-49" d="M 1081 4666 
L 1716 4666 
L 806 0 
L 172 0 
L 1081 4666 
z
" transform="scale(0.015625)"/>
       <path id="DejaVuSans-Bold-78" d="M 1422 1791 
L 159 3500 
L 1344 3500 
L 2059 2463 
L 2784 3500 
L 3969 3500 
L 2706 1797 
L 4031 0 
L 2847 0 
L 2059 1106 
L 1281 0 
L 97 0 
L 1422 1791 
z
" transform="scale(0.015625)"/>
       <path id="DejaVuSans-2c" d="M 750 794 
L 1409 794 
L 1409 256 
L 897 -744 
L 494 -744 
L 750 256 
L 750 794 
z
" transform="scale(0.015625)"/>
       <path id="DejaVuSans-Oblique-68" d="M 3566 2113 
L 3156 0 
L 2578 0 
L 2988 2091 
Q 3016 2238 3031 2350 
Q 3047 2463 3047 2528 
Q 3047 2791 2881 2937 
Q 2716 3084 2419 3084 
Q 1956 3084 1617 2771 
Q 1278 2459 1178 1941 
L 800 0 
L 225 0 
L 1172 4863 
L 1747 4863 
L 1375 2950 
Q 1594 3244 1934 3414 
Q 2275 3584 2650 3584 
Q 3113 3584 3367 3334 
Q 3622 3084 3622 2631 
Q 3622 2519 3608 2391 
Q 3594 2263 3566 2113 
z
" transform="scale(0.015625)"/>
      </defs>
      <use xlink:href="#DejaVuSans-Oblique-49" transform="translate(0 0.09375)"/>
      <use xlink:href="#DejaVuSans-Bold-78" transform="translate(29.492188 -16.3125) scale(0.7)"/>
      <use xlink:href="#DejaVuSans-2c" transform="translate(74.643555 -16.3125) scale(0.7)"/>
      <use xlink:href="#DejaVuSans-Oblique-68" transform="translate(110.532227 -16.3125) scale(0.7)"/>
     </g>
    </g>
   </g>
   <g id="line2d_10">
    <path d="M 69.218182 249.271049 
L 113.63176 249.1958 
L 114.938041 248.814039 
L 116.244323 248.135626 
L 117.550605 247.190109 
L 118.856886 246.006763 
L 120.598595 244.108053 
L 122.775732 241.308058 
L 124.952868 238.139516 
L 128.000858 233.270876 
L 132.355131 225.830861 
L 141.93453 209.33132 
L 146.288802 202.289986 
L 150.643075 195.686099 
L 154.56192 190.146533 
L 158.480765 184.994643 
L 162.39961 180.222364 
L 166.318455 175.814206 
L 170.2373 171.75053 
L 174.156145 168.009693 
L 178.07499 164.569427 
L 181.993835 161.407706 
L 186.348108 158.19555 
L 190.70238 155.273462 
L 195.056652 152.615728 
L 199.846352 149.969268 
L 204.636052 147.585101 
L 209.425751 145.437074 
L 214.650878 143.335407 
L 220.311432 141.312272 
L 225.971986 139.522835 
L 232.067967 137.82584 
L 238.599376 136.239364 
L 245.566211 134.776264 
L 252.968474 133.444455 
L 261.241592 132.186571 
L 270.385564 131.033185 
L 280.40039 130.004398 
L 291.286071 129.110393 
L 303.913461 128.303794 
L 318.28256 127.615997 
L 335.264222 127.034369 
L 355.729302 126.564307 
L 373.581818 126.293228 
L 373.581818 126.293228 
" clip-path="url(#p5dc750b6dc)" style="fill: none; stroke: #8bdab2; stroke-width: 2; stroke-linecap: square"/>
   </g>
   <g id="line2d_11">
    <path d="M 69.218182 249.271049 
L 113.63176 249.216171 
L 114.938041 248.935377 
L 116.244323 248.430817 
L 117.550605 247.719088 
L 119.292314 246.476825 
L 121.034023 244.935527 
L 123.211159 242.646755 
L 125.388295 240.021755 
L 128.000858 236.519745 
L 131.484276 231.415956 
L 136.273976 223.917519 
L 150.207647 201.825587 
L 155.432774 194.104426 
L 160.222474 187.445508 
L 164.576746 181.763684 
L 168.931018 176.441106 
L 173.285291 171.473035 
L 177.639563 166.848632 
L 181.993835 162.553292 
L 186.348108 158.570245 
L 190.70238 154.881664 
L 195.056652 151.4694 
L 199.846352 148.013617 
L 204.636052 144.847228 
L 209.425751 141.948057 
L 214.215451 139.295145 
L 219.440577 136.658846 
L 224.665704 134.268501 
L 230.326258 131.931148 
L 235.986812 129.831247 
L 242.082794 127.808766 
L 248.614202 125.887765 
L 255.581038 124.087322 
L 262.547874 122.513003 
L 270.385564 120.977952 
L 278.658681 119.592349 
L 287.367226 118.356601 
L 296.946625 117.22037 
L 307.396879 116.202866 
L 319.153414 115.284134 
L 332.216231 114.48692 
L 347.456184 113.786316 
L 365.308701 113.198256 
L 373.581818 112.990271 
L 373.581818 112.990271 
" clip-path="url(#p5dc750b6dc)" style="fill: none; stroke: #40b7ad; stroke-width: 2; stroke-linecap: square"/>
   </g>
   <g id="line2d_12">
    <path d="M 69.218182 249.271049 
L 114.067187 249.17813 
L 115.808896 248.784698 
L 117.550605 248.115788 
L 119.292314 247.203348 
L 121.46945 245.763324 
L 123.646586 244.035595 
L 126.259149 241.641266 
L 129.30714 238.482626 
L 132.790558 234.491226 
L 136.709403 229.635719 
L 141.93453 222.757511 
L 150.207647 211.420213 
L 160.222474 197.768361 
L 166.753882 189.250331 
L 172.414436 182.237095 
L 177.639563 176.114197 
L 182.86469 170.351302 
L 187.654389 165.393369 
L 192.444089 160.746584 
L 197.233789 156.406275 
L 202.023488 152.36405 
L 206.813188 148.608878 
L 211.602887 145.127949 
L 216.392587 141.907338 
L 221.617714 138.673767 
L 226.84284 135.713593 
L 232.067967 133.007849 
L 237.293094 130.538027 
L 242.953648 128.107965 
L 248.614202 125.912312 
L 254.710183 123.786647 
L 261.241592 121.757887 
L 267.773 119.960277 
L 274.739836 118.27007 
L 282.142099 116.701857 
L 289.979789 115.265603 
L 298.688334 113.904073 
L 307.832306 112.701522 
L 317.847132 111.609193 
L 329.16824 110.608322 
L 341.79563 109.728291 
L 355.729302 108.984184 
L 371.840109 108.349006 
L 373.581818 108.292028 
L 373.581818 108.292028 
" clip-path="url(#p5dc750b6dc)" style="fill: none; stroke: #348fa7; stroke-width: 2; stroke-linecap: square"/>
   </g>
   <g id="line2d_13">
    <path d="M 69.218182 249.271049 
L 114.067187 249.160868 
L 115.373469 248.852839 
L 117.115178 248.186508 
L 118.856886 247.28323 
L 121.034023 245.895016 
L 123.646586 243.94438 
L 126.694577 241.387879 
L 130.613422 237.794508 
L 135.403121 233.07871 
L 141.063675 227.170506 
L 147.595084 220.010074 
L 156.303629 210.086946 
L 172.414436 191.649487 
L 179.381272 184.062928 
L 185.477253 177.76168 
L 191.137807 172.240744 
L 196.362934 167.449702 
L 201.588061 162.962089 
L 206.813188 158.780162 
L 212.038314 154.900172 
L 217.263441 151.313878 
L 222.488568 148.009818 
L 227.713695 144.97435 
L 232.938822 142.19248 
L 238.163948 139.648501 
L 243.824503 137.1425 
L 249.485057 134.876927 
L 255.581038 132.683608 
L 261.677019 130.72324 
L 268.208428 128.856454 
L 275.175263 127.103977 
L 282.577526 125.481475 
L 290.415217 123.999527 
L 298.688334 122.663824 
L 307.832306 121.421411 
L 317.847132 120.298054 
L 328.732813 119.309539 
L 340.924776 118.434627 
L 354.42302 117.69118 
L 370.0984 117.053472 
L 373.581818 116.938073 
L 373.581818 116.938073 
" clip-path="url(#p5dc750b6dc)" style="fill: none; stroke: #37659e; stroke-width: 2; stroke-linecap: square"/>
   </g>
   <g id="line2d_14">
    <path d="M 69.218182 249.271049 
L 113.63176 249.197098 
L 114.938041 248.841216 
L 116.244323 248.247522 
L 117.986032 247.178224 
L 120.163168 245.535838 
L 123.211159 242.916491 
L 157.174483 212.279501 
L 169.366446 200.693058 
L 179.381272 191.309253 
L 185.91268 185.476907 
L 192.008662 180.331306 
L 197.669216 175.852401 
L 202.894343 171.992649 
L 208.119469 168.40375 
L 213.344596 165.085362 
L 218.569723 162.031706 
L 223.79485 159.233085 
L 229.019977 156.677125 
L 234.680531 154.165682 
L 240.341085 151.903479 
L 246.001639 149.871067 
L 252.09762 147.917234 
L 258.629028 146.068459 
L 265.160437 144.446379 
L 272.127273 142.937836 
L 279.529536 141.555364 
L 287.802653 140.242918 
L 296.511198 139.087751 
L 306.090597 138.041738 
L 316.976278 137.087508 
L 329.16824 136.255143 
L 343.101912 135.539891 
L 359.212719 134.945503 
L 373.581818 134.568104 
L 373.581818 134.568104 
" clip-path="url(#p5dc750b6dc)" style="fill: none; stroke: #413d7b; stroke-width: 2; stroke-linecap: square"/>
   </g>
   <g id="patch_3">
    <path d="M 44 256.32 
L 44 101.243077 
" style="fill: none; stroke: #000000; stroke-width: 0.8; stroke-linejoin: miter; stroke-linecap: square"/>
   </g>
   <g id="patch_4">
    <path d="M 54 266.32 
L 388.8 266.32 
" style="fill: none; stroke: #000000; stroke-width: 0.8; stroke-linejoin: miter; stroke-linecap: square"/>
   </g>
   <g id="legend_1">
    <g id="patch_5">
     <path d="M 400 206.540192 
L 495.645 206.540192 
Q 498.845 206.540192 498.845 203.340192 
L 498.845 81.427692 
Q 498.845 78.227692 495.645 78.227692 
L 400 78.227692 
Q 396.8 78.227692 396.8 81.427692 
L 396.8 203.340192 
Q 396.8 206.540192 400 206.540192 
z
" style="fill: #ffffff; opacity: 0.8; stroke: #cccccc; stroke-linejoin: miter"/>
    </g>
    <g id="line2d_15">
     <path d="M 403.2 91.122692 
L 419.2 91.122692 
L 433 91.122692 
" style="fill: none; stroke: #8bdab2; stroke-width: 2; stroke-linecap: square"/>
    </g>
    <g id="text_11">
     <!-- w=0.1 -->
     <g transform="translate(448 96.722692) scale(0.16 -0.16)">
      <defs>
       <path id="Avenir-Book-77" d="M 589 2995 
L 1280 563 
L 1293 563 
L 2093 2995 
L 2528 2995 
L 3328 563 
L 3341 563 
L 4032 2995 
L 4531 2995 
L 3584 0 
L 3110 0 
L 2317 2458 
L 2304 2458 
L 1510 0 
L 1037 0 
L 90 2995 
L 589 2995 
z
" transform="scale(0.015625)"/>
       <path id="Avenir-Book-3d" d="M 3763 1651 
L 3763 1267 
L 499 1267 
L 499 1651 
L 3763 1651 
z
M 3763 2611 
L 3763 2227 
L 499 2227 
L 499 2611 
L 3763 2611 
z
" transform="scale(0.015625)"/>
       <path id="Avenir-Book-31" d="M 2227 0 
L 1766 0 
L 1766 3955 
L 954 3238 
L 666 3584 
L 1818 4531 
L 2227 4531 
L 2227 0 
z
" transform="scale(0.015625)"/>
      </defs>
      <use xlink:href="#Avenir-Book-77"/>
      <use xlink:href="#Avenir-Book-3d" x="72.199982"/>
      <use xlink:href="#Avenir-Book-30" x="138.799973"/>
      <use xlink:href="#Avenir-Book-2e" x="194.399963"/>
      <use xlink:href="#Avenir-Book-31" x="222.199951"/>
     </g>
    </g>
    <g id="line2d_16">
     <path d="M 403.2 115.825192 
L 419.2 115.825192 
L 433 115.825192 
" style="fill: none; stroke: #40b7ad; stroke-width: 2; stroke-linecap: square"/>
    </g>
    <g id="text_12">
     <!-- w=0.4 -->
     <g transform="translate(448 121.425192) scale(0.16 -0.16)">
      <use xlink:href="#Avenir-Book-77"/>
      <use xlink:href="#Avenir-Book-3d" x="72.199982"/>
      <use xlink:href="#Avenir-Book-30" x="138.799973"/>
      <use xlink:href="#Avenir-Book-2e" x="194.399963"/>
      <use xlink:href="#Avenir-Book-34" x="222.199951"/>
     </g>
    </g>
    <g id="line2d_17">
     <path d="M 403.2 140.527692 
L 419.2 140.527692 
L 433 140.527692 
" style="fill: none; stroke: #348fa7; stroke-width: 2; stroke-linecap: square"/>
    </g>
    <g id="text_13">
     <!-- w=1 -->
     <g transform="translate(448 146.127692) scale(0.16 -0.16)">
      <use xlink:href="#Avenir-Book-77"/>
      <use xlink:href="#Avenir-Book-3d" x="72.199982"/>
      <use xlink:href="#Avenir-Book-31" x="138.799973"/>
     </g>
    </g>
    <g id="line2d_18">
     <path d="M 403.2 165.230192 
L 419.2 165.230192 
L 433 165.230192 
" style="fill: none; stroke: #37659e; stroke-width: 2; stroke-linecap: square"/>
    </g>
    <g id="text_14">
     <!-- w=2 -->
     <g transform="translate(448 170.830192) scale(0.16 -0.16)">
      <use xlink:href="#Avenir-Book-77"/>
      <use xlink:href="#Avenir-Book-3d" x="72.199982"/>
      <use xlink:href="#Avenir-Book-32" x="138.799973"/>
     </g>
    </g>
    <g id="line2d_19">
     <path d="M 403.2 189.932692 
L 419.2 189.932692 
L 433 189.932692 
" style="fill: none; stroke: #413d7b; stroke-width: 2; stroke-linecap: square"/>
    </g>
    <g id="text_15">
     <!-- w=5 -->
     <g transform="translate(448 195.532692) scale(0.16 -0.16)">
      <defs>
       <path id="Avenir-Book-35" d="M 2976 4109 
L 1120 4109 
L 1094 2746 
Q 1242 2803 1395 2828 
Q 1549 2854 1702 2854 
Q 2022 2854 2284 2745 
Q 2547 2637 2736 2441 
Q 2925 2246 3030 1980 
Q 3136 1715 3136 1402 
Q 3136 1075 3021 803 
Q 2906 531 2701 336 
Q 2496 141 2217 32 
Q 1939 -77 1613 -77 
Q 1184 -77 838 128 
Q 493 333 307 730 
L 762 928 
Q 890 659 1120 502 
Q 1350 346 1651 346 
Q 1869 346 2054 426 
Q 2240 506 2377 640 
Q 2515 774 2595 960 
Q 2675 1146 2675 1357 
Q 2675 1594 2592 1792 
Q 2509 1990 2361 2134 
Q 2214 2278 2009 2355 
Q 1805 2432 1562 2432 
Q 1318 2432 1078 2365 
Q 838 2298 621 2182 
L 666 4531 
L 2976 4531 
L 2976 4109 
z
" transform="scale(0.015625)"/>
      </defs>
      <use xlink:href="#Avenir-Book-77"/>
      <use xlink:href="#Avenir-Book-3d" x="72.199982"/>
      <use xlink:href="#Avenir-Book-35" x="138.799973"/>
     </g>
    </g>
   </g>
  </g>
  <g id="axes_3">
   <g id="patch_6">
    <path d="M 280.8 230.4 
L 367.2 230.4 
L 367.2 172.8 
L 280.8 172.8 
L 280.8 230.4 
z
" style="fill: none"/>
   </g>
   <g id="matplotlib.axis_3">
    <g id="xtick_5">
     <g id="line2d_20">
      <g>
       <use xlink:href="#m23108bbfb2" x="284.727273" y="240.4" style="stroke: #000000; stroke-width: 0.8"/>
      </g>
     </g>
     <g id="text_16">
      <!-- 0.0 -->
      <g transform="translate(273.608523 259.495) scale(0.16 -0.16)">
       <use xlink:href="#Avenir-Book-30"/>
       <use xlink:href="#Avenir-Book-2e" x="55.599991"/>
       <use xlink:href="#Avenir-Book-30" x="83.399979"/>
      </g>
     </g>
    </g>
    <g id="xtick_6">
     <g id="line2d_21">
      <g>
       <use xlink:href="#m23108bbfb2" x="364.875696" y="240.4" style="stroke: #000000; stroke-width: 0.8"/>
      </g>
     </g>
     <g id="text_17">
      <!-- 0.5 -->
      <g transform="translate(353.756946 259.495) scale(0.16 -0.16)">
       <use xlink:href="#Avenir-Book-30"/>
       <use xlink:href="#Avenir-Book-2e" x="55.599991"/>
       <use xlink:href="#Avenir-Book-35" x="83.399979"/>
      </g>
     </g>
    </g>
   </g>
   <g id="matplotlib.axis_4">
    <g id="ytick_5">
     <g id="line2d_22">
      <g>
       <use xlink:href="#md8d95f6ca4" x="270.8" y="227.781818" style="stroke: #000000; stroke-width: 0.8"/>
      </g>
     </g>
     <g id="text_18">
      <!-- 0.0 -->
      <g transform="translate(241.5625 233.829318) scale(0.16 -0.16)">
       <use xlink:href="#Avenir-Book-30"/>
       <use xlink:href="#Avenir-Book-2e" x="55.599991"/>
       <use xlink:href="#Avenir-Book-30" x="83.399979"/>
      </g>
     </g>
    </g>
    <g id="ytick_6">
     <g id="line2d_23">
      <g>
       <use xlink:href="#md8d95f6ca4" x="270.8" y="185.712026" style="stroke: #000000; stroke-width: 0.8"/>
      </g>
     </g>
     <g id="text_19">
      <!-- 0.1 -->
      <g transform="translate(241.5625 191.759526) scale(0.16 -0.16)">
       <use xlink:href="#Avenir-Book-30"/>
       <use xlink:href="#Avenir-Book-2e" x="55.599991"/>
       <use xlink:href="#Avenir-Book-31" x="83.399979"/>
      </g>
     </g>
    </g>
   </g>
   <g id="line2d_24">
    <path d="M 284.727273 227.781818 
L 286.330241 227.744272 
L 287.93321 227.633017 
L 289.536178 227.450151 
L 291.139147 227.197798 
L 292.742115 226.878101 
L 294.345083 226.493219 
L 295.948052 226.045318 
L 297.55102 225.536567 
L 299.153989 224.969134 
L 300.756957 224.345178 
L 302.359926 223.666848 
L 303.962894 222.936276 
L 305.565863 222.155575 
L 307.168831 221.326832 
L 308.7718 220.45211 
L 310.374768 219.53344 
L 311.977737 218.57282 
L 313.580705 217.572214 
L 315.183673 216.533546 
L 316.786642 215.458702 
L 318.38961 214.349527 
L 319.992579 213.207822 
L 321.595547 212.035344 
L 323.198516 210.833806 
L 324.801484 209.604875 
L 326.404453 208.35017 
L 328.007421 207.071266 
L 329.61039 205.769688 
L 331.213358 204.446917 
L 332.816327 203.104384 
L 334.419295 201.743475 
L 336.022263 200.365528 
L 337.625232 198.971836 
L 339.2282 197.563646 
L 340.831169 196.142161 
L 342.434137 194.708537 
L 344.037106 193.26389 
L 345.640074 191.80929 
L 347.243043 190.345767 
L 348.846011 188.87431 
L 350.44898 187.395866 
L 352.051948 185.911345 
L 353.654917 184.421619 
L 355.257885 182.92752 
L 356.860853 181.429849 
L 358.463822 179.929366 
L 360.06679 178.426802 
L 361.669759 176.922853 
L 363.272727 175.418182 
" clip-path="url(#p48e151874a)" style="fill: none; stroke: #8bdab2; stroke-width: 2; stroke-linecap: square"/>
   </g>
   <g id="line2d_25">
    <path d="M 284.727273 227.781818 
L 286.330241 227.754499 
L 287.93321 227.6733 
L 289.536178 227.539375 
L 291.139147 227.353893 
L 292.742115 227.11804 
L 294.345083 226.833016 
L 295.948052 226.500029 
L 297.55102 226.120296 
L 299.153989 225.695041 
L 300.756957 225.225493 
L 302.359926 224.712881 
L 303.962894 224.158435 
L 305.565863 223.563384 
L 307.168831 222.928953 
L 308.7718 222.256361 
L 310.374768 221.546821 
L 311.977737 220.801537 
L 313.580705 220.021706 
L 315.183673 219.208509 
L 316.786642 218.363119 
L 318.38961 217.486694 
L 319.992579 216.580377 
L 321.595547 215.645295 
L 323.198516 214.682559 
L 324.801484 213.693265 
L 326.404453 212.678488 
L 328.007421 211.639285 
L 329.61039 210.576694 
L 331.213358 209.491734 
L 332.816327 208.385403 
L 334.419295 207.258679 
L 336.022263 206.112517 
L 337.625232 204.947854 
L 339.2282 203.765605 
L 340.831169 202.566661 
L 342.434137 201.351893 
L 344.037106 200.122153 
L 345.640074 198.878267 
L 347.243043 197.621042 
L 348.846011 196.351264 
L 350.44898 195.069695 
L 352.051948 193.777079 
L 353.654917 192.474137 
L 355.257885 191.161569 
L 356.860853 189.840056 
L 358.463822 188.510257 
L 360.06679 187.172813 
L 361.669759 185.828342 
L 363.272727 184.477447 
" clip-path="url(#p48e151874a)" style="fill: none; stroke: #40b7ad; stroke-width: 2; stroke-linecap: square"/>
   </g>
   <g id="line2d_26">
    <path d="M 284.727273 227.781818 
L 286.330241 227.760992 
L 287.93321 227.69934 
L 289.536178 227.598076 
L 291.139147 227.458382 
L 292.742115 227.28141 
L 294.345083 227.06828 
L 295.948052 226.820081 
L 297.55102 226.537872 
L 299.153989 226.222684 
L 300.756957 225.875516 
L 302.359926 225.49734 
L 303.962894 225.089099 
L 305.565863 224.651712 
L 307.168831 224.186067 
L 308.7718 223.693028 
L 310.374768 223.173434 
L 311.977737 222.6281 
L 313.580705 222.057815 
L 315.183673 221.463348 
L 316.786642 220.845442 
L 318.38961 220.204821 
L 319.992579 219.542188 
L 321.595547 218.858223 
L 323.198516 218.15359 
L 324.801484 217.428931 
L 326.404453 216.684872 
L 328.007421 215.92202 
L 329.61039 215.140966 
L 331.213358 214.342283 
L 332.816327 213.526529 
L 334.419295 212.694248 
L 336.022263 211.845968 
L 337.625232 210.982203 
L 339.2282 210.103454 
L 340.831169 209.210207 
L 342.434137 208.302938 
L 344.037106 207.382109 
L 345.640074 206.448172 
L 347.243043 205.501567 
L 348.846011 204.542721 
L 350.44898 203.572054 
L 352.051948 202.589973 
L 353.654917 201.596878 
L 355.257885 200.593157 
L 356.860853 199.579191 
L 358.463822 198.555351 
L 360.06679 197.522 
L 361.669759 196.479494 
L 363.272727 195.428178 
" clip-path="url(#p48e151874a)" style="fill: none; stroke: #348fa7; stroke-width: 2; stroke-linecap: square"/>
   </g>
   <g id="line2d_27">
    <path d="M 284.727273 227.781818 
L 286.330241 227.75674 
L 287.93321 227.683263 
L 289.536178 227.563941 
L 291.139147 227.401219 
L 292.742115 227.197436 
L 294.345083 226.954826 
L 295.948052 226.675517 
L 297.55102 226.361537 
L 299.153989 226.014816 
L 300.756957 225.637185 
L 302.359926 225.230383 
L 303.962894 224.796058 
L 305.565863 224.335769 
L 307.168831 223.850992 
L 308.7718 223.343119 
L 310.374768 222.813465 
L 311.977737 222.263271 
L 313.580705 221.693702 
L 315.183673 221.105857 
L 316.786642 220.500769 
L 318.38961 219.879406 
L 319.992579 219.242677 
L 321.595547 218.591436 
L 323.198516 217.926481 
L 324.801484 217.248558 
L 326.404453 216.558366 
L 328.007421 215.856557 
L 329.61039 215.14374 
L 331.213358 214.420483 
L 332.816327 213.687316 
L 334.419295 212.944731 
L 336.022263 212.193187 
L 337.625232 211.433111 
L 339.2282 210.664899 
L 340.831169 209.888919 
L 342.434137 209.105515 
L 344.037106 208.315002 
L 345.640074 207.517676 
L 347.243043 206.71381 
L 348.846011 205.903656 
L 350.44898 205.08745 
L 352.051948 204.26541 
L 353.654917 203.437737 
L 355.257885 202.604618 
L 356.860853 201.766228 
L 358.463822 200.922729 
L 360.06679 200.074269 
L 361.669759 199.22099 
L 363.272727 198.363021 
" clip-path="url(#p48e151874a)" style="fill: none; stroke: #37659e; stroke-width: 2; stroke-linecap: square"/>
   </g>
   <g id="line2d_28">
    <path d="M 284.727273 227.781818 
L 286.330241 227.744365 
L 287.93321 227.635584 
L 289.536178 227.460655 
L 291.139147 227.224513 
L 292.742115 226.931842 
L 294.345083 226.587081 
L 295.948052 226.194426 
L 297.55102 225.757837 
L 299.153989 225.281041 
L 300.756957 224.767539 
L 302.359926 224.220617 
L 303.962894 223.643346 
L 305.565863 223.038597 
L 307.168831 222.409045 
L 308.7718 221.757181 
L 310.374768 221.085318 
L 311.977737 220.395597 
L 313.580705 219.690003 
L 315.183673 218.970366 
L 316.786642 218.238372 
L 318.38961 217.495571 
L 319.992579 216.743386 
L 321.595547 215.983117 
L 323.198516 215.215952 
L 324.801484 214.442973 
L 326.404453 213.665159 
L 328.007421 212.883399 
L 329.61039 212.098493 
L 331.213358 211.31116 
L 332.816327 210.522042 
L 334.419295 209.731713 
L 336.022263 208.940679 
L 337.625232 208.149385 
L 339.2282 207.358222 
L 340.831169 206.567528 
L 342.434137 205.777591 
L 344.037106 204.988657 
L 345.640074 204.200932 
L 347.243043 203.414582 
L 348.846011 202.629741 
L 350.44898 201.846511 
L 352.051948 201.064965 
L 353.654917 200.285152 
L 355.257885 199.507097 
L 356.860853 198.730802 
L 358.463822 197.956252 
L 360.06679 197.183415 
L 361.669759 196.412244 
L 363.272727 195.642678 
" clip-path="url(#p48e151874a)" style="fill: none; stroke: #413d7b; stroke-width: 2; stroke-linecap: square"/>
   </g>
   <g id="patch_7">
    <path d="M 270.8 230.4 
L 270.8 172.8 
" style="fill: none; stroke: #000000; stroke-width: 0.8; stroke-linejoin: miter; stroke-linecap: square"/>
   </g>
   <g id="patch_8">
    <path d="M 280.8 240.4 
L 367.2 240.4 
" style="fill: none; stroke: #000000; stroke-width: 0.8; stroke-linejoin: miter; stroke-linecap: square"/>
   </g>
  </g>
 </g>
 <defs>
  <clipPath id="p368352174d">
   <rect x="54" y="34.56" width="334.8" height="46.523077"/>
  </clipPath>
  <clipPath id="p5dc750b6dc">
   <rect x="54" y="101.243077" width="334.8" height="155.076923"/>
  </clipPath>
  <clipPath id="p48e151874a">
   <rect x="280.8" y="172.8" width="86.4" height="57.6"/>
  </clipPath>
 </defs>
</svg>
